<?xml version="1.0" encoding="utf-8"?>
<!-- Generator: Adobe Illustrator 21.1.0, SVG Export Plug-In . SVG Version: 6.00 Build 0)  -->
<svg version="1.1" id="Calque_1" xmlns="http://www.w3.org/2000/svg" xmlns:xlink="http://www.w3.org/1999/xlink" x="0px" y="0px"
	 viewBox="0 0 1070.9 880.5" style="enable-background:new 0 0 1070.9 880.5;" xml:space="preserve">
<style type="text/css">
	.st0{fill:#0275B6;}
	.st1{fill:none;stroke:#0275B6;stroke-width:2;stroke-miterlimit:10;}
	.st2{fill:#028EDD;}
	.st3{fill:#009978;}
	.st4{fill:#28BCC9;}
	.st5{fill:#FFA72B;}
	.st6{fill:#DF4101;}
	.st7{font-family:'OpenSans-Bold';}
	.st8{font-size:30px;}
	.st9{font-family:'OpenSans';}
	.st10{font-size:15px;}
	.st11{fill:#284055;}
	.st12{font-size:25.62px;}
	.st13{fill:none;stroke:#FF8E02;stroke-width:3;stroke-miterlimit:10;}
	.st14{fill:#FF8E02;}
</style>
<title>MK_Process_v001</title>
<path class="st0" d="M249.5,755.3v116.6H12.4V755.3H249.5 M251.5,753.3H10.4v120.6h241.1V753.3z"/>
<path class="st0" d="M508.9,755.3v116.6H271.9V755.3H508.9 M510.9,753.3H269.9v120.6h241.1V753.3z"/>
<path class="st0" d="M765.4,755.3v116.6H528.3V755.3H765.4 M767.4,753.3H526.3v120.6h241.1V753.3z"/>
<line class="st1" x1="135.4" y1="753.4" x2="219.4" y2="633.4"/>
<line class="st1" x1="390.4" y1="753.4" x2="390.4" y2="699.4"/>
<line class="st1" x1="645.4" y1="753.4" x2="561.4" y2="633.4"/>
<path class="st2" d="M332.2,250.8L204.4,74.9l1.5-1C302.1,7.1,427.1-2.2,532.2,49.6c7.8,3.8,15.5,8,22.9,12.5l-1.8,3.1
	c-7.4-4.4-15-8.6-22.7-12.4c-28.8-14.3-59.6-24-91.4-29c-32.9-5.1-66.4-5.1-99.2,0c-46.9,7.3-91.5,25.1-130.6,51.9L333.1,246
	c12.5-7.6,26.3-12.6,40.8-14.7c10.4-1.5,20.9-1.5,31.3,0c14.5,2.1,28.3,7.1,40.8,14.7l93.4-128.5l2.9,2.1L447,250.8l-1.4-0.9
	c-12.4-7.8-26.3-13-40.8-15c-10-1.4-20.3-1.4-30.3,0c-14.5,2.1-28.4,7.2-40.8,15L332.2,250.8z"/>
<path class="st2" d="M572.2,75.3c-6.5-8.6-13.6-20.8-16.5-30.7l-4,17.6l-14.3,11C547.7,71.6,561.7,73,572.2,75.3z"/>
<path class="st3" d="M645.3,416.3l-154.2-50.1l0.4-1.6c0.5-2.1,1-4.2,1.4-6.2s0.7-4.3,1-6.4s0.5-4.3,0.6-6.5s0.2-4.4,0.2-6.6
	c0-7.9-0.9-15.9-2.7-23.6c-3.4-14.9-10.1-28.9-19.5-41c-4.6-5.9-9.9-11.4-15.7-16.2l-1.3-1.1L583.4,81.2l1.4,1.1
	c38.8,29.6,70.5,67.6,92.6,111.2c11.2,22.1,19.8,45.4,25.6,69.5c6,24.9,9,50.4,9,76c0,8-0.3,16-0.9,24s-1.4,15.8-2.6,23.5
	s-2.6,15.4-4.2,23l-0.3,1.5l-3.5-0.8l0.3-1.5c1.7-7.5,3.1-15.1,4.2-22.7s2-15.5,2.6-23.2s0.9-15.8,0.9-23.7c0-25.3-3-50.5-8.9-75.1
	c-11.5-47.4-33.7-91.6-65-129c-15-18-31.9-34.3-50.4-48.6L460.4,256.5c11.4,9.8,20.7,21.9,27.2,35.5c3.4,7.2,6.1,14.7,7.9,22.4
	c1.8,8,2.8,16.2,2.8,24.4c0,2.3-0.1,4.6-0.2,6.8s-0.3,4.5-0.6,6.7s-0.6,4.4-1,6.6c-0.3,1.6-0.7,3.2-1,4.8l151,49.1L645.3,416.3z"/>
<path class="st3" d="M696.7,431.2c6.2-8.8,15.5-19.4,24.1-25.2l-17.9,1.7L688,397.4C692.6,406.7,695.6,420.4,696.7,431.2z"/>
<path class="st4" d="M81.2,433.4l-0.5-1.8c-2.2-7.3-4.2-14.9-5.8-22.4s-3.1-15.3-4.2-23s-2-15.7-2.6-23.5s-0.9-16-0.9-24
	c0-25.6,3-51.1,9-76c11.6-47.9,34.1-92.5,65.7-130.4c10.9-13.1,22.9-25.3,35.7-36.6l2.3,2.7c-31,27-56.4,59.7-75,96.4
	c-11.1,21.9-19.6,44.9-25.3,68.7c-5.9,24.6-8.9,49.8-8.9,75.1c0,7.9,0.3,15.9,0.9,23.7s1.4,15.6,2.6,23.2s2.5,15.2,4.2,22.7
	c1.5,6.8,3.3,13.7,5.3,20.4l200.2-65c-0.4-1.6-0.7-3.2-1-4.8c-0.4-2.2-0.8-4.4-1-6.6s-0.5-4.5-0.6-6.7s-0.2-4.6-0.2-6.8
	c0-8.2,0.9-16.3,2.7-24.3c3.5-15.4,10.4-29.9,20.2-42.3c4.4-5.7,9.4-10.9,14.9-15.6L225.4,128l2.9-2.1l95.3,131.2l-1.3,1.1
	c-11.6,9.7-21,21.8-27.6,35.4c-3.3,6.9-5.9,14.2-7.6,21.7c-1.8,7.7-2.7,15.7-2.7,23.6c0,2.2,0.1,4.4,0.2,6.6s0.3,4.4,0.6,6.5
	s0.6,4.3,1,6.4s0.8,4.2,1.4,6.2l0.4,1.6L81.2,433.4z"/>
<path class="st4" d="M195.4,83.7c-10.2,3.5-24,6.6-34.3,6.3l15.5,9.2l6,17C184.3,105.9,189.9,93,195.4,83.7z"/>
<path class="st5" d="M418.3,660l-0.3-3.5c124-11.2,230.1-93.4,272-210.6l-200.2-65c-15.6,37.5-50.9,63.1-91.4,66.3v158.8h-3.6V443.8
	l1.7-0.1c40.3-2.7,75.5-28.3,90.6-65.8l0.6-1.5l206.8,67.2l-0.6,1.7C652.3,564.8,544.4,648.8,418.3,660z"/>
<path class="st5" d="M396.7,659.4c10.3,3.2,23.2,8.8,31.4,15.1L421,658l5.1-17.3C418.7,647.9,406.6,655.1,396.7,659.4z"/>
<path class="st6" d="M384.2,661.2h-1.8c-126.5-2.9-239.7-79.5-289.5-195.8l3.3-1.4C145,578.6,256.2,654.2,380.7,657.6V447.2
	c-40.4-3.3-75.7-28.9-91.4-66.4l-151.1,49.1l-1.1-3.4l154.2-50.1l0.6,1.5c15,37.5,50.2,63.1,90.6,65.8l1.7,0.1L384.2,661.2z"/>
<path class="st6" d="M86.8,444.7c0.2,10.8-1.2,24.8-4.7,34.5l13.5-11.9l18-0.5C104.5,462.1,94,452.8,86.8,444.7z"/>
<text transform="matrix(1 0 0 1 325.0176 106.2074)" class="st7 st8">ANALYSE</text>
<text transform="matrix(1 0 0 1 316.3776 134.8374)" class="st9 st10"> Soft data, Hard data, </text>
<text transform="matrix(1 0 0 1 322.5576 152.8374)" class="st9 st10">Learnings, Decision</text>
<text transform="matrix(1 0 0 1 544.4875 253.2074)" class="st11 st7 st8">IDEATE</text>
<text transform="matrix(1 0 0 1 502.6176 281.8374)" class="st11 st9 st10">Usability tests, Experience, </text>
<text transform="matrix(1 0 0 1 506.5975 299.8374)" class="st11 st9 st10">User interviews, Analytics</text>
<text transform="matrix(1 0 0 1 440.1676 494.2874)" class="st11 st7 st8">PRIORITISE</text>
<text transform="matrix(1 0 0 1 446.6476 522.9174)" class="st11 st9 st10">Impact/Effort Matrix, </text>
<text transform="matrix(1 0 0 1 488.7676 540.9174)" class="st11 st9 st10">G.R.I.E.S.</text>
<text transform="matrix(1 0 0 1 207.1576 486.6274)" class="st11 st7 st8">DEFINE</text>
<text transform="matrix(1 0 0 1 202.3176 515.2574)" class="st11 st9 st10">Minimum Viable </text>
<text transform="matrix(1 0 0 1 182.2476 533.2574)" class="st11 st9 st10">Experiment, Deadline, </text>
<text transform="matrix(1 0 0 1 203.8676 551.2574)" class="st11 st9 st10">Line in the sand</text>
<text transform="matrix(1 0 0 1 114.6476 253.2074)" class="st11 st7 st8">EXECUTE</text>
<text transform="matrix(1 0 0 1 86.3176 281.8374)" class="st11 st9 st10">Get it done, Growth Team, </text>
<text transform="matrix(1 0 0 1 110.7776 299.8374)" class="st11 st9 st10">Scrum/Agile, Speed</text>
<text transform="matrix(1 0 0 1 96.8276 792.9174)" class="st0 st7 st12">DATA</text>
<text transform="matrix(1 0 0 1 66.9576 823.6674)" class="st0 st7 st12">TRACKING</text>
<text transform="matrix(1 0 0 1 82.5276 854.4174)" class="st0 st7 st12">SYSTEM</text>
<text transform="matrix(1 0 0 1 325.2276 808.2874)" class="st0 st7 st12"> PERSONA</text>
<text transform="matrix(1 0 0 1 327.9076 839.0374)" class="st0 st7 st12">ANALYSIS</text>
<text transform="matrix(1 0 0 1 611.0775 792.9174)" class="st0 st7 st12">FULL-</text>
<text transform="matrix(1 0 0 1 594.9275 823.6674)" class="st0 st7 st12">FUNNEL</text>
<text transform="matrix(1 0 0 1 585.9175 854.4174)" class="st0 st7 st12">ANALYSIS</text>
<polygon class="st13" points="925,8.1 966.7,92.5 1059.8,106 992.4,171.7 1008.3,264.4 925,220.6 841.7,264.4 857.6,171.7 
	790.2,106 883.4,92.5 "/>
<text transform="matrix(1 0 0 1 871.9076 128.3374)" class="st14 st7 st8">NORTH</text>
<text transform="matrix(1 0 0 1 888.5676 164.3374)" class="st14 st7 st8">STAR</text>
<text transform="matrix(1 0 0 1 870.4276 200.3374)" class="st14 st7 st8">METRIC</text>
</svg>
