<svg xmlns="http://www.w3.org/2000/svg" viewBox="0 0 1257.23 421.59"><defs><style>.a{opacity:0.15;}.b{fill:#929292;}.c{fill:#f9f9f9;stroke:#acacac;stroke-miterlimit:10;stroke-width:7px;}</style></defs><title>Asset 1</title><g class="a"><rect class="b" x="552.23" y="212" width="320" height="16" transform="translate(40.72 543.65) rotate(-42.9)"/><rect class="b" x="785.03" y="169.27" width="155.22" height="15.63" transform="translate(554.67 -647.94) rotate(57.93)"/><rect class="b" x="870.84" y="168.83" width="188.01" height="16.1" transform="translate(137.63 704.07) rotate(-42.9)"/><rect class="b" x="1024.19" y="123.35" width="87.62" height="15.7" transform="matrix(0.94, 0.35, -0.35, 0.94, 114.88, -368.19)"/><rect class="b" x="1073.84" y="75.83" width="188.01" height="16.1" transform="translate(255.22 817.38) rotate(-42.9)"/><circle class="c" cx="826.23" cy="114" r="14.5"/><circle class="c" cx="902.23" cy="240" r="14.5"/><circle class="c" cx="1032.23" cy="114" r="14.5"/><circle class="c" cx="1103.23" cy="153" r="14.5"/><circle class="c" cx="1239.23" cy="18" r="14.5"/><rect class="b" x="279.05" y="339.24" width="320" height="16" transform="translate(-25.57 35.03) rotate(-4.44)"/><circle class="c" cx="594.25" cy="335.13" r="14.5" transform="translate(-37.77 592.03) rotate(-51.54)"/><rect class="b" x="-1.51" y="383.78" width="275.86" height="11.27" transform="translate(-72.67 33.7) rotate(-11.14)"/><circle class="c" cx="282.23" cy="362" r="14.5"/></g></svg>