<svg xmlns="http://www.w3.org/2000/svg" viewBox="0 0 395.65 70.95"><defs><style>.cls-1{fill:#fff;}</style></defs><title>Asset 1</title><g id="Layer_2" data-name="Layer 2"><g id="Layer_1-2" data-name="Layer 1"><g id="_Group_" data-name="&lt;Group&gt;"><polygon id="_Path_" data-name="&lt;Path&gt;" class="cls-1" points="158.41 23.77 166.86 26.48 168.58 26.99 171.52 25.73 171.14 22.18 171.16 22.16 167.1 14.88 158.41 23.77"/><polygon id="_Path_2" data-name="&lt;Path&gt;" class="cls-1" points="132.6 1.07 132.03 1.1 132.49 1.54 132.6 1.07"/><polygon id="_Path_3" data-name="&lt;Path&gt;" class="cls-1" points="142.34 67.2 143.13 68.76 145.22 68.15 145.79 67.2 143.54 67.2 142.34 67.2"/><polygon id="_Path_4" data-name="&lt;Path&gt;" class="cls-1" points="44.03 54.56 43.76 59.58 47.21 57.39 44.03 54.56"/><polygon id="_Path_5" data-name="&lt;Path&gt;" class="cls-1" points="94.09 69.7 94.52 69.89 95.75 69.75 95.11 68.59 94.09 69.7"/><polygon id="_Path_6" data-name="&lt;Path&gt;" class="cls-1" points="105.3 67.2 104.47 69.58 105.12 70.23 107.53 70.95 110.5 70.54 111.5 67.57 111.16 67.2 106.39 67.2 105.3 67.2"/><polygon id="_Path_7" data-name="&lt;Path&gt;" class="cls-1" points="95.11 68.59 95.75 69.75 96.4 69.68 98.49 68.71 97.91 67.2 96.96 67.2 95.11 68.59"/><polygon id="_Path_8" data-name="&lt;Path&gt;" class="cls-1" points="101.7 67.28 104.13 69.67 104.96 67.28 101.7 67.28"/><polygon id="_Path_9" data-name="&lt;Path&gt;" class="cls-1" points="95.5 67.2 95.11 68.59 96.96 67.2 96.24 67.2 95.5 67.2"/><polyline id="_Path_10" data-name="&lt;Path&gt;" class="cls-1" points="67.66 16.76 69.02 12.68 65.14 12.69"/><polyline id="_Path_11" data-name="&lt;Path&gt;" class="cls-1" points="63.49 12.07 61.67 13.75 65.08 20.33 66.15 15.56"/><polygon id="_Path_12" data-name="&lt;Path&gt;" class="cls-1" points="72.81 13.86 63.63 22.43 69.2 29.14 72.81 13.86"/><polygon id="_Path_13" data-name="&lt;Path&gt;" class="cls-1" points="70.98 28.73 70.98 28.73 70.98 28.73 70.98 28.73"/><polygon id="_Path_14" data-name="&lt;Path&gt;" class="cls-1" points="70.98 28.73 70.98 28.73 70.98 28.73 70.98 28.73"/><path id="_Path_15" data-name="&lt;Path&gt;" class="cls-1" d="M33.86,36.05l5.75,1,3.31-1.93L40.7,33.76l-5.37.66Z"/><polygon id="_Path_16" data-name="&lt;Path&gt;" class="cls-1" points="58.92 20.42 56.7 14.56 45.58 24.32 58.92 20.42"/><polygon id="_Path_17" data-name="&lt;Path&gt;" class="cls-1" points="54.89 30.78 60.61 32.42 60.63 32.41 60.55 20.94 54.89 30.78"/><polygon id="_Path_18" data-name="&lt;Path&gt;" class="cls-1" points="74.94 37.11 74.94 32.07 69.79 29.59 64.39 43.9 74.94 37.11"/><polygon id="_Path_19" data-name="&lt;Path&gt;" class="cls-1" points="68.22 29.58 62.65 22.86 62.8 43.9 62.82 43.89 68.22 29.58 68.22 29.58"/><polygon id="_Path_20" data-name="&lt;Path&gt;" class="cls-1" points="70.98 28.73 70.98 28.73 70.98 28.73 70.98 28.73"/><polygon id="_Path_21" data-name="&lt;Path&gt;" class="cls-1" points="70.98 28.73 70.98 28.73 70.98 28.73 70.98 28.73"/><circle id="_Path_22" data-name="&lt;Path&gt;" class="cls-1" cx="70.98" cy="28.73"/><circle id="_Path_23" data-name="&lt;Path&gt;" class="cls-1" cx="70.98" cy="28.73"/><polygon id="_Path_24" data-name="&lt;Path&gt;" class="cls-1" points="43.45 23.97 39.1 27.52 40.68 30.83 43.45 23.97"/><polygon id="_Path_25" data-name="&lt;Path&gt;" class="cls-1" points="51.71 23.46 50.62 26.47 55.91 27.17 51.71 23.46"/><polygon id="_Path_26" data-name="&lt;Path&gt;" class="cls-1" points="46.93 66.99 39.41 61.85 38.01 62.11 37.15 65.21 41.06 65.92 46.93 66.99"/><polygon id="_Path_27" data-name="&lt;Path&gt;" class="cls-1" points="31.15 35.65 38.64 32.48 38.18 30.14 30.23 33.04 28.43 34.92 31.15 35.65"/><polygon id="_Path_28" data-name="&lt;Path&gt;" class="cls-1" points="22.75 40.97 27.64 38.59 25.96 35.08 22.75 40.97"/><polygon id="_Path_29" data-name="&lt;Path&gt;" class="cls-1" points="18.55 37.08 21.07 34.15 12.79 35.43 12.76 37.02 18.55 37.08 18.55 37.08"/><polygon id="_Path_30" data-name="&lt;Path&gt;" class="cls-1" points="55.36 37.72 51.32 30.11 49.14 35.01 49.5 41.65 55.36 37.72"/><polygon id="_Path_31" data-name="&lt;Path&gt;" class="cls-1" points="44.26 34.07 47.41 32.74 47.22 29.23 44.26 34.07"/><polygon id="_Path_32" data-name="&lt;Path&gt;" class="cls-1" points="58.7 33.12 56.07 39 59.13 41.08 58.7 33.12"/><polygon id="_Path_33" data-name="&lt;Path&gt;" class="cls-1" points="37.12 55.53 37.28 58.34 41.43 56.97 40.48 48.27 37.12 55.53"/><polygon id="_Path_34" data-name="&lt;Path&gt;" class="cls-1" points="50.31 45.37 45.67 50.08 49.66 54.2 52.46 52.28 53.27 46.56 50.31 45.37 50.31 45.37"/><polygon id="_Path_35" data-name="&lt;Path&gt;" class="cls-1" points="58.24 48.64 65.03 44.21 55.52 41.49 58.24 48.64"/><polygon id="_Path_36" data-name="&lt;Path&gt;" class="cls-1" points="45.11 47.38 48.21 45.17 44.26 42.31 45.11 47.38"/><polygon id="_Path_37" data-name="&lt;Path&gt;" class="cls-1" points="87.01 57.12 85.68 62.66 87.21 64.17 90.47 59.9 87.01 57.12"/><polygon id="_Path_38" data-name="&lt;Path&gt;" class="cls-1" points="90.64 66.85 90.47 59.9 87.21 64.17 89.91 66.85 90.19 66.85 90.64 66.85"/><polygon id="_Path_39" data-name="&lt;Path&gt;" class="cls-1" points="93.87 66.85 94.71 66.85 95.74 65.46 90.47 59.9 90.64 66.85 90.19 66.85 89.91 66.85 90.18 67.11 90.27 67.2 91.76 68.67 94.09 69.7 95.11 68.59 94.12 67.2 93.87 66.85"/><polygon id="_Path_40" data-name="&lt;Path&gt;" class="cls-1" points="96.14 66.85 95.74 65.46 94.71 66.85 93.87 66.85 94.12 67.2 95.11 68.59 95.5 67.2 96.24 67.2 96.14 66.85"/><polygon id="_Path_41" data-name="&lt;Path&gt;" class="cls-1" points="95.74 65.46 95.88 65.2 94.11 63.72 92.59 58.92 90.47 59.9 95.74 65.46"/><polygon id="_Path_42" data-name="&lt;Path&gt;" class="cls-1" points="92.59 58.92 91.53 55.59 90.47 59.9 92.59 58.92"/><polygon id="_Path_43" data-name="&lt;Path&gt;" class="cls-1" points="90.47 59.9 91.53 55.59 90.63 52.73 90.89 51.02 87.01 57.12 90.47 59.9"/><polygon id="_Path_44" data-name="&lt;Path&gt;" class="cls-1" points="79.59 53.3 84.01 58.6 87.89 52.49 88.54 48.37 77.66 50.41 79.59 53.3"/><polygon id="_Path_45" data-name="&lt;Path&gt;" class="cls-1" points="68.21 48.51 68.11 54.28 72.04 52.92 68.21 48.51"/><polygon id="_Path_46" data-name="&lt;Path&gt;" class="cls-1" points="77.97 59.81 77.95 61.16 80.2 63.38 81.34 58.65 77.97 59.81"/><polygon id="_Path_47" data-name="&lt;Path&gt;" class="cls-1" points="75.21 44.28 78.85 49.75 76.54 39.49 75.21 44.28"/><polygon id="_Path_48" data-name="&lt;Path&gt;" class="cls-1" points="76.66 38.89 76.66 38.89 78.66 47.75 79.01 48.28 84.59 31.49 76.66 38.89"/><polygon id="_Path_49" data-name="&lt;Path&gt;" class="cls-1" points="81.1 48.38 81.37 48.78 92.24 46.73 92.92 42.4 87.56 28.94 81.1 48.38"/><polygon id="_Path_50" data-name="&lt;Path&gt;" class="cls-1" points="77.69 37.67 77.69 37.67 77.69 37.67 77.69 37.67"/><polygon id="_Path_51" data-name="&lt;Path&gt;" class="cls-1" points="77.69 37.67 77.69 37.67 77.69 37.67 77.69 37.67"/><polygon id="_Path_52" data-name="&lt;Path&gt;" class="cls-1" points="111.31 22.88 109.68 14.59 109.49 14.59 104.83 22.23 111.31 22.88"/><polygon id="_Path_53" data-name="&lt;Path&gt;" class="cls-1" points="89.02 29.98 93.62 42.01 94.25 42.61 97.68 43.54 106.11 24.52 89.02 29.98 89.02 29.98"/><polygon id="_Path_54" data-name="&lt;Path&gt;" class="cls-1" points="104.01 23.77 98.18 12.79 96.23 12.8 86.86 29.1 104.01 23.77"/><polygon id="_Path_55" data-name="&lt;Path&gt;" class="cls-1" points="78.59 16.16 82.5 18.64 85.23 9.08 80.98 9.09 78.59 11.12 78.59 16.16"/><polygon id="_Path_56" data-name="&lt;Path&gt;" class="cls-1" points="81.67 20.95 81.67 20.95 85.41 27.1 87.27 13.79 81.67 20.95"/><polygon id="_Path_57" data-name="&lt;Path&gt;" class="cls-1" points="77.75 12.68 74.6 12.69 74.6 12.74 74.6 12.69 73.77 12.69 73.22 12.69 72.92 12.69 74.6 14.71 74.6 14.72 77.75 12.68"/><polygon id="_Path_58" data-name="&lt;Path&gt;" class="cls-1" points="118.53 32.48 113 25.46 111.75 41.63 118.53 32.48"/><polygon id="_Path_59" data-name="&lt;Path&gt;" class="cls-1" points="110.08 42.8 97.94 45.58 98.44 45.81 98.91 53.98 100 55.07 110.08 42.8"/><polygon id="_Path_60" data-name="&lt;Path&gt;" class="cls-1" points="101.54 53.77 108.52 56.74 112.92 47.35 111.62 41.49 101.54 53.77"/><polygon id="_Path_61" data-name="&lt;Path&gt;" class="cls-1" points="106.13 66.73 110.7 66.73 108.62 64.5 107.19 60.6 108.68 57.43 101.7 54.46 106.13 66.73"/><polygon id="_Path_62" data-name="&lt;Path&gt;" class="cls-1" points="105.77 66.73 101.34 54.46 100.4 56.11 101.19 66.73 104.93 66.73 105.77 66.73"/><polygon id="_Path_63" data-name="&lt;Path&gt;" class="cls-1" points="97.82 66.97 97.77 66.85 97.74 66.75 95.88 65.2 95.74 65.46 96.14 66.85 96.24 67.2 96.96 67.2 97.91 67.2 97.82 66.97"/><polygon id="_Path_64" data-name="&lt;Path&gt;" class="cls-1" points="117.84 6.71 110.89 11.06 110.72 11.06 120.75 13.73 117.84 6.71"/><polygon id="_Path_65" data-name="&lt;Path&gt;" class="cls-1" points="120.75 15.52 110.72 12.85 109.53 12.85 111.87 24.79 120.75 15.52"/><polygon id="_Path_66" data-name="&lt;Path&gt;" class="cls-1" points="121.51 15.34 112.6 24.57 118.58 32.23 121.51 15.34"/><polygon id="_Path_67" data-name="&lt;Path&gt;" class="cls-1" points="122.08 14.98 122.08 14.98 122.08 14.98 122.08 14.98 122.08 14.98 122.08 14.98 124.28 11.26 129.68 2.13 128.98 2.3 119.49 8.49 122.08 14.98 122.08 14.98"/><polygon id="_Path_68" data-name="&lt;Path&gt;" class="cls-1" points="129.65 15.44 140.79 15.44 126.69 8.19 124.7 11.42 122.22 15.44 129.65 15.44"/><polygon id="_Path_69" data-name="&lt;Path&gt;" class="cls-1" points="122.22 15.44 122.22 15.44 122.22 15.44 122.22 15.44"/><polygon id="_Path_70" data-name="&lt;Path&gt;" class="cls-1" points="122.22 15.44 122.22 15.44 122.22 15.44 122.22 15.44"/><polygon id="_Path_71" data-name="&lt;Path&gt;" class="cls-1" points="124.7 11.42 122.22 15.44 122.22 15.44 124.7 11.42"/><polygon id="_Path_72" data-name="&lt;Path&gt;" class="cls-1" points="124.7 11.42 122.22 15.44 122.22 15.44 124.7 11.42"/><polygon id="_Path_73" data-name="&lt;Path&gt;" class="cls-1" points="126.69 8.19 140.79 15.44 132.49 1.54 132.02 1.1 131.23 1.14 130.79 1.54 126.69 8.19"/><polygon id="_Path_74" data-name="&lt;Path&gt;" class="cls-1" points="104.44 13.32 99.2 13.33 105.03 24.32 104.44 13.32"/><polygon id="_Path_75" data-name="&lt;Path&gt;" class="cls-1" points="108.33 13.14 104.83 13.15 105.12 18.42 108.33 13.14"/><polygon id="_Path_76" data-name="&lt;Path&gt;" class="cls-1" points="125.08 42.76 132.22 38.3 119.36 32.34 125.08 42.76"/><polygon id="_Path_77" data-name="&lt;Path&gt;" class="cls-1" points="111.99 42.3 125.08 42.76 119.36 32.34 111.99 42.3"/><polygon id="_Path_78" data-name="&lt;Path&gt;" class="cls-1" points="132.22 38.3 125.08 42.76 125.42 48.24 127.66 48.48 128.75 44.71 132.22 38.3"/><polygon id="_Path_79" data-name="&lt;Path&gt;" class="cls-1" points="111.84 42.57 114.31 47.36 122.31 48.2 124.93 43.04 111.84 42.57"/><polygon id="_Path_80" data-name="&lt;Path&gt;" class="cls-1" points="122.8 48.15 125.08 48.39 124.81 44.18 122.8 48.15"/><polygon id="_Path_81" data-name="&lt;Path&gt;" class="cls-1" points="158.41 23.77 151.71 12.43 149.38 24.7 158.41 23.77"/><polygon id="_Path_82" data-name="&lt;Path&gt;" class="cls-1" points="158.41 23.77 160.84 29.32 162.03 27.32 165.38 26.01 158.41 23.77"/><polyline id="_Path_83" data-name="&lt;Path&gt;" class="cls-1" points="167.1 14.88 163.52 13.86 158.41 23.77"/><polygon id="_Path_84" data-name="&lt;Path&gt;" class="cls-1" points="164.97 11.04 163.78 13.35 167.08 14.84 164.97 11.04"/><polygon id="_Path_85" data-name="&lt;Path&gt;" class="cls-1" points="172.97 15.82 165.19 10.97 164.97 11.04 167.08 14.84 167.29 14.93 167.88 15.1 167.29 14.93 167.29 14.93 167.1 14.88 171.16 22.16 173.67 18.52 172.97 15.82"/><polygon id="_Path_86" data-name="&lt;Path&gt;" class="cls-1" points="151.71 12.43 150.8 0.04 149.22 0.13 145.16 4.55 151.71 12.43"/><polygon id="_Path_87" data-name="&lt;Path&gt;" class="cls-1" points="149.22 0.13 145.67 0.33 145.16 4.55 149.22 0.13"/><polygon id="_Path_88" data-name="&lt;Path&gt;" class="cls-1" points="145.67 0.33 143.01 0.48 145.16 4.55 145.67 0.33"/><polygon id="_Path_89" data-name="&lt;Path&gt;" class="cls-1" points="145.16 4.55 143.01 0.48 132.6 1.07 132.49 1.54 145.16 4.55"/><polygon id="_Path_90" data-name="&lt;Path&gt;" class="cls-1" points="149.38 24.7 150.39 38.21 151.34 35.55 153.85 34.72 158.41 23.77 149.38 24.7"/><polygon id="_Path_91" data-name="&lt;Path&gt;" class="cls-1" points="153.85 34.72 158.53 33.16 160.84 29.32 158.41 23.77 153.85 34.72"/><polygon id="_Path_92" data-name="&lt;Path&gt;" class="cls-1" points="143.56 32.34 149.52 40.66 150.39 38.21 149.38 24.7 143.56 32.34"/><polygon id="_Path_93" data-name="&lt;Path&gt;" class="cls-1" points="149.44 59.42 149.38 57.73 149.25 57.7 147.94 55.09 146.76 60.59 149.44 59.42"/><polygon id="_Path_94" data-name="&lt;Path&gt;" class="cls-1" points="148.01 63.49 149.5 61.01 149.44 59.42 146.76 60.59 148.01 63.49"/><polygon id="_Path_95" data-name="&lt;Path&gt;" class="cls-1" points="132.03 1.1 132.02 1.1 132.49 1.54 132.03 1.1"/><polygon id="_Path_96" data-name="&lt;Path&gt;" class="cls-1" points="132.03 1.1 132.02 1.1 132.49 1.54 132.03 1.1"/><polygon id="_Path_97" data-name="&lt;Path&gt;" class="cls-1" points="145.16 4.55 140.79 15.44 151.71 12.43 145.16 4.55"/><polygon id="_Path_98" data-name="&lt;Path&gt;" class="cls-1" points="151.71 12.43 140.79 15.44 149.38 24.7 151.71 12.43"/><polygon id="_Path_99" data-name="&lt;Path&gt;" class="cls-1" points="149.38 24.7 140.79 15.44 143.56 32.34 149.38 24.7"/><polygon id="_Path_100" data-name="&lt;Path&gt;" class="cls-1" points="132.49 1.54 140.79 15.44 145.16 4.55 132.49 1.54"/><polygon id="_Path_101" data-name="&lt;Path&gt;" class="cls-1" points="161.65 13.33 160.46 14.02 159.74 14.15 158.97 13.12 158.41 23.77 163.52 13.86 161.65 13.33"/><polygon id="_Path_102" data-name="&lt;Path&gt;" class="cls-1" points="163.78 13.35 164.97 11.04 162.07 9.03 159.28 7.29 159.07 11.24 163.78 13.35"/><polygon id="_Path_103" data-name="&lt;Path&gt;" class="cls-1" points="158.41 23.77 158.97 13.12 158.05 11.87 158.65 11.05 159.07 11.24 159.28 7.29 159.22 7.25 159.18 7.18 151.71 12.43 158.41 23.77"/><polygon id="_Path_104" data-name="&lt;Path&gt;" class="cls-1" points="158.68 6.13 158.78 3.99 152.9 0.73 159.02 6.84 158.68 6.13"/><polygon id="_Path_105" data-name="&lt;Path&gt;" class="cls-1" points="159.18 7.18 159.02 6.84 152.9 0.73 151.58 0 150.8 0.04 151.71 12.43 159.18 7.18"/><polygon id="_Path_106" data-name="&lt;Path&gt;" class="cls-1" points="165.03 10.88 162.07 9.03 164.97 11.04 165.19 10.97 165.03 10.88"/><polygon id="_Path_107" data-name="&lt;Path&gt;" class="cls-1" points="138.01 42.76 143.54 32.34 132.22 38.3 138.01 42.76"/><polygon id="_Path_108" data-name="&lt;Path&gt;" class="cls-1" points="138.02 42.76 148.91 42.37 149.52 40.66 143.56 32.34 138.02 42.76"/><polygon id="_Path_109" data-name="&lt;Path&gt;" class="cls-1" points="132.22 38.3 137.26 54.7 137.28 54.72 138.01 42.71 132.22 38.3"/><path id="_Path_110" data-name="&lt;Path&gt;" class="cls-1" d="M146.76,60.6l1.18-5.5c-.91-2.43-2.83-7.55-2.88-7.67l3-2.81.8-2.24-10.89.4Z"/><polygon id="_Path_111" data-name="&lt;Path&gt;" class="cls-1" points="146.76 60.59 138.02 42.76 137.29 54.77 137.43 54.89 140.89 57 146.76 60.59"/><polyline id="_Path_112" data-name="&lt;Path&gt;" class="cls-1" points="128.75 44.71 127.66 48.48 130.51 48.77"/><polygon id="_Path_113" data-name="&lt;Path&gt;" class="cls-1" points="127.66 48.48 127.66 48.48 128.75 44.71 127.66 48.48"/><polygon id="_Path_114" data-name="&lt;Path&gt;" class="cls-1" points="127.66 48.48 127.66 48.48 128.75 44.71 127.66 48.48"/><polygon id="_Path_115" data-name="&lt;Path&gt;" class="cls-1" points="142.34 67.2 143.54 67.2 143.71 66.85 142.16 66.85 142.34 67.2"/><polygon id="_Path_116" data-name="&lt;Path&gt;" class="cls-1" points="137.43 54.89 137.43 54.89 140.89 57 137.43 54.89"/><polygon id="_Path_117" data-name="&lt;Path&gt;" class="cls-1" points="137.43 54.89 137.43 54.89 140.89 57 137.43 54.89"/><polygon id="_Path_118" data-name="&lt;Path&gt;" class="cls-1" points="139.92 66.85 141.25 66.85 140.35 64.09 137.68 65.38 137.19 65.17 137.18 66.85 139.92 66.85"/><polygon id="_Path_119" data-name="&lt;Path&gt;" class="cls-1" points="143.71 66.85 146 66.85 148.01 63.49 146.76 60.59 143.71 66.85"/><polygon id="_Path_120" data-name="&lt;Path&gt;" class="cls-1" points="143.54 67.2 145.79 67.2 146 66.85 143.71 66.85 143.54 67.2"/><polygon id="_Path_121" data-name="&lt;Path&gt;" class="cls-1" points="143.54 67.2 145.79 67.2 146 66.85 143.71 66.85 143.54 67.2"/><polygon id="_Path_122" data-name="&lt;Path&gt;" class="cls-1" points="140.78 15.44 129.64 15.44 122.22 15.44 136.39 26.26 140.78 15.45 140.78 15.44"/><polygon id="_Path_123" data-name="&lt;Path&gt;" class="cls-1" points="122.22 15.44 122.22 15.44 122.22 15.44 122.22 15.44"/><polygon id="_Path_124" data-name="&lt;Path&gt;" class="cls-1" points="122.22 15.44 122.22 15.44 122.22 15.44 122.22 15.44"/><polygon id="_Path_125" data-name="&lt;Path&gt;" class="cls-1" points="122.22 15.44 122.22 15.44 122.22 15.44 129.65 15.44 122.22 15.44"/><polygon id="_Path_126" data-name="&lt;Path&gt;" class="cls-1" points="122.22 15.44 122.22 15.44 122.22 15.44 129.65 15.44 122.22 15.44"/><circle id="_Path_127" data-name="&lt;Path&gt;" class="cls-1" cx="122.22" cy="15.44"/><circle id="_Path_128" data-name="&lt;Path&gt;" class="cls-1" cx="122.22" cy="15.44"/><circle id="_Path_129" data-name="&lt;Path&gt;" class="cls-1" cx="122.22" cy="15.44"/><polygon id="_Path_130" data-name="&lt;Path&gt;" class="cls-1" points="140.79 15.44 140.79 15.44 140.78 15.46 140.79 15.44"/><polygon id="_Path_131" data-name="&lt;Path&gt;" class="cls-1" points="140.79 15.44 140.79 15.44 140.78 15.46 140.79 15.44"/><polyline id="_Path_132" data-name="&lt;Path&gt;" class="cls-1" points="120.54 24.5 119.36 31.98 130.79 37.67 121.97 15.44 121.97 15.44 120.54 24.5"/><polygon id="_Path_133" data-name="&lt;Path&gt;" class="cls-1" points="134.78 27.19 122.22 15.44 122.22 15.44 122.22 15.44 131.14 38.19 134.78 27.19"/><polygon id="_Path_134" data-name="&lt;Path&gt;" class="cls-1" points="122.22 15.44 122.22 15.44 122.22 15.44 122.22 15.44"/><polygon id="_Path_135" data-name="&lt;Path&gt;" class="cls-1" points="122.22 15.44 122.22 15.44 122.22 15.44 122.22 15.44"/><polygon id="_Path_136" data-name="&lt;Path&gt;" class="cls-1" points="122.22 15.44 122.22 15.44 122.22 15.44 122.22 15.44"/><polygon id="_Path_137" data-name="&lt;Path&gt;" class="cls-1" points="122.22 15.44 122.22 15.44 122.22 15.44 122.22 15.44"/><polygon id="_Path_138" data-name="&lt;Path&gt;" class="cls-1" points="122.22 15.44 122.22 15.44 122.22 15.44 122.22 15.44"/><polygon id="_Path_139" data-name="&lt;Path&gt;" class="cls-1" points="122.22 15.44 122.22 15.44 122.22 15.44 122.22 15.44"/><polygon id="_Path_140" data-name="&lt;Path&gt;" class="cls-1" points="122.22 15.44 122.22 15.44 122.22 15.44 122.22 15.44 122.22 15.44 122.22 15.44"/><polygon id="_Path_141" data-name="&lt;Path&gt;" class="cls-1" points="122.22 15.44 122.22 15.44 122.22 15.44 122.22 15.44 122.22 15.44 122.22 15.44"/><polygon id="_Path_142" data-name="&lt;Path&gt;" class="cls-1" points="122.22 15.44 122.22 15.44 122.22 15.44 122.22 15.44 122.22 15.44 122.22 15.44"/><path id="_Path_143" data-name="&lt;Path&gt;" class="cls-1" d="M9.74,34.77l.08-1.59L0,32.69l1.27,1.8Z"/><polygon id="_Path_144" data-name="&lt;Path&gt;" class="cls-1" points="137.27 54.75 137.29 54.81 137.28 54.76 137.27 54.75 137.27 54.75"/><polygon id="_Path_145" data-name="&lt;Path&gt;" class="cls-1" points="130.51 48.77 137.27 54.75 137.28 54.76 132.23 38.31 130.51 48.77"/><polyline id="_Path_146" data-name="&lt;Path&gt;" class="cls-1" points="140.78 15.46 132.22 38.3 143.56 32.34"/><polygon id="_Path_147" data-name="&lt;Path&gt;" class="cls-1" points="137.21 67.19 137.17 67.19 137.19 65.17 135.34 67.14 135.33 67.14 135.33 67.16 135.29 67.2 135.34 67.2 135.6 69.44 137.16 70.49 138.82 70.05 139.84 67.25 137.21 67.19"/><polygon id="_Path_148" data-name="&lt;Path&gt;" class="cls-1" points="128.75 44.71 130.51 48.77 132.23 38.31 128.75 44.71"/><polygon id="_Path_149" data-name="&lt;Path&gt;" class="cls-1" points="46.02 31.19 47.22 29.23 47.3 30.84 49.95 30.11 43.83 24.69 44.89 31.5 46.02 31.19"/><polygon id="_Path_150" data-name="&lt;Path&gt;" class="cls-1" points="78.09 26.59 78.09 25.53 75.27 29.18 75.27 31.32 75.27 36.36 75.27 36.48 76.82 37.78 80.06 24.04 78.09 26.59"/><polygon id="_Path_151" data-name="&lt;Path&gt;" class="cls-1" points="81.67 20.95 82.69 19.64 78.09 17.43 78.09 19.56 78.09 26.59 82.01 21.51 81.67 20.95"/><polygon id="_Path_152" data-name="&lt;Path&gt;" class="cls-1" points="81.39 22.31 81.17 22.61 77.66 37.45 86.84 28.88 81.39 22.31"/><polygon id="_Path_153" data-name="&lt;Path&gt;" class="cls-1" points="86.14 11.77 86.16 15.21 87.27 13.79 86.21 21.4 86.25 28.06 95.62 11.75 86.14 11.77"/><polygon id="_Path_154" data-name="&lt;Path&gt;" class="cls-1" points="101.7 54.46 101.76 54.48 101.06 53.79 100.81 54.09 100.87 55.07 100.88 55.26 101.34 54.46 101.58 55.13 101.8 54.74 101.7 54.46"/><polygon id="_Path_155" data-name="&lt;Path&gt;" class="cls-1" points="111.08 42.15 111.62 41.49 111.74 42 112.31 41.87 114.09 39.46 113.83 38.83 111.75 41.63 112.25 35.17 107.55 24.25 99.59 41.91 103.72 43.84 111.08 42.15"/><polygon id="_Path_156" data-name="&lt;Path&gt;" class="cls-1" points="135.6 69.44 135.34 67.2 135.29 67.2 133.39 67.2 133.25 67.2 133.29 67.33 133.54 68.17 135.61 69.49 135.61 69.45 135.6 69.44"/><polygon id="_Path_157" data-name="&lt;Path&gt;" class="cls-1" points="135.33 67.14 135.34 67.14 137.19 65.17 134.64 64.04 133.77 65.03 132.9 66.02 133.14 66.85 133.25 67.2 133.39 67.2 135.29 67.2 135.33 67.16 135.33 67.14"/><polygon id="_Path_158" data-name="&lt;Path&gt;" class="cls-1" points="140.89 57 137.43 54.89 140.83 57.9 140.4 64.07 140.35 64.09 141.25 66.85 139.92 66.85 139.8 67.2 139.8 67.2 139.78 67.25 139.84 67.25 139.06 69.38 138.85 70.02 143.13 68.76 142.34 67.2 143.54 67.2 143.71 66.85 146.76 60.59 140.89 57"/><polygon id="_Path_159" data-name="&lt;Path&gt;" class="cls-1" points="75.27 29.18 76.14 28.06 76.14 22.04 70.98 28.73 75.27 30.79 75.27 29.18"/></g><path class="cls-1" d="M204.77,35.72V9.57h4.3l9.61,21.81,9.43-21.81h4.12V35.72h-3V14.27l-9.3,21.45h-2.67l-9.45-21.45V35.72Z"/><path class="cls-1" d="M239.32,35.72H235.8L246.91,9.57h3.75l11.17,26.15h-3.75l-3.39-8.23H246l.93-2.74h6.59L248.67,12.9Z"/><path class="cls-1" d="M265.41,35.72V9.57h9.52q13,0,13,12.36,0,13.79-13,13.79ZM274.93,33q9.61,0,9.61-11,0-9.62-9.61-9.62h-6.13V33Z"/><path class="cls-1" d="M305.41,9.57V35.72H302V9.57Zm18.42,0L312,21.91l12,13.8h-4.71L308.71,23.14v-2L319.54,9.57Z"/><path class="cls-1" d="M331,9.57v3.2h-3.39V9.57Zm0,6.95v19.2h-3.39V16.52Z"/><path class="cls-1" d="M336.9,35.72V16.52h2.29l.6,2.45a9.92,9.92,0,0,1,6.48-2.45q7.2,0,7.2,7.15v12h-3.39V23.61q0-4.28-4.27-4.28a8.05,8.05,0,0,0-5.53,2.43v14Z"/><path class="cls-1" d="M375.2,35.72q0,6.95-8.84,6.95a19.92,19.92,0,0,1-6.3-.91V39a20.37,20.37,0,0,0,6.33.91q5.42,0,5.42-4.21V34.8a11.79,11.79,0,0,1-4.65.91Q358,35.72,358,26q0-9.49,9.61-9.49a35.69,35.69,0,0,1,7.54.79Zm-3.39-15.94a17.91,17.91,0,0,0-4.3-.44q-6.13,0-6.13,6.64,0,6.82,5.8,6.82a10.32,10.32,0,0,0,4.63-1Z"/><path class="cls-1" d="M380.51,34.8V31.88a22.08,22.08,0,0,0,6.85,1.1q4.6,0,4.6-2.74,0-2.56-3.2-2.56H386q-6.22,0-6.23-5.67,0-5.48,8-5.48a26.11,26.11,0,0,1,6.83.91v2.93a22,22,0,0,0-6.83-1.1q-4.8,0-4.8,2.74,0,2.56,3,2.56h2.75q6.59,0,6.59,5.67,0,5.48-8,5.48A26.14,26.14,0,0,1,380.51,34.8Z"/><path class="cls-1" d="M303.77,61.29H302l5.6-13.2h1.89l5.63,13.2h-1.89l-1.71-4.15h-4.36l.47-1.38H311l-2.46-6Z"/><path class="cls-1" d="M326.89,60.82a11.9,11.9,0,0,1-3.69.55q-6.92,0-6.92-6.87,0-6.51,6.92-6.51a11.89,11.89,0,0,1,3.69.55V50a9.84,9.84,0,0,0-3.51-.65q-5.4,0-5.4,5.12,0,5.49,5.4,5.49a9.82,9.82,0,0,0,3.51-.65Z"/><path class="cls-1" d="M330.13,61.29h-1.77l5.6-13.2h1.89l5.63,13.2h-1.89l-1.71-4.15h-4.36l.47-1.38h3.32l-2.46-6Z"/><path class="cls-1" d="M343.28,61.29V48.09h4.8q6.55,0,6.55,6.24,0,7-6.55,7Zm4.8-1.38q4.84,0,4.84-5.57,0-4.85-4.84-4.85H345V59.9Z"/><path class="cls-1" d="M365.75,48.09v1.38h-6.92V53.9h6.6v1.38h-6.6V59.9h7.06v1.38h-8.77V48.09Z"/><path class="cls-1" d="M368.48,61.29V48.09h2.17l4.84,11,4.75-11h2.08v13.2h-1.52V50.46l-4.69,10.82h-1.35L370,50.46V61.29Z"/><path class="cls-1" d="M384.12,48.09H386l3.8,6.89,3.86-6.89h2l-5,8.58v4.61h-1.71V56.67Z"/></g></g></svg>