<svg xmlns="http://www.w3.org/2000/svg" viewBox="0 0 380.28 127.56"><defs><style>.a{fill:#231f20;}.b{fill:#fff;}.c{fill:#ed1c24;}</style></defs><title>Asset 11</title><rect class="a" x="221.46" y="99.15" width="13.58" height="11.81"/><polygon class="a" points="108.54 113.31 9.87 122.08 0 8.77 98.67 0 108.54 113.31"/><path class="b" d="M91.69,57.35c-1.16-12.79-5.78-22.91-13.38-29.26-7-5.81-16.23-8.38-26.79-7.43l-33,2.89,7.05,80.62,33-2.89a40.83,40.83,0,0,0,15.84-4.52,31.05,31.05,0,0,0,10.72-9.51c5.37-7.64,7.63-18,6.56-29.9M69.77,79.4a18.83,18.83,0,0,1-13.53,7.35L41.72,88,37.23,36.64l11.28-1c7.91-.71,13.77.62,17.9,4.07,4.49,3.75,7,10,7.86,19.56.74,8.29-.81,15.25-4.5,20.12"/><rect class="c" x="104.88" y="13.89" width="99.03" height="113.67"/><polygon class="b" points="121.88 29.97 139.76 29.97 139.76 60.8 169.04 60.8 169.04 29.97 186.93 29.97 186.93 111.11 169.04 111.11 169.04 76.22 139.76 76.22 139.76 111.11 121.88 111.11 121.88 29.97"/><path class="a" d="M380.28,80.25c0-16.34-9.5-31.9-34.26-31.9s-34.26,15.56-34.26,31.9S321.28,111,346,111h25.89V99.15H346c-11.07,0-16.56-5.14-18.28-13h52.1a38.71,38.71,0,0,0,.44-5.91m-52.53-5.91c1.72-7.85,7.2-14.17,18.27-14.17s16.56,6.32,18.28,14.17Z"/><path class="a" d="M270.41,49.54H258.6V30.12H243.25V97.67c0,7.2,5.3,13.29,18.25,13.29h8.91c24.75,0,34.26-14.37,34.26-30.71s-9.51-30.71-34.26-30.71m0,49.61h-4.79c-4.82,0-7-2.22-7-4.43V61.35h11.81c13.77,0,18.91,8.58,18.91,18.9s-5.14,18.9-18.91,18.9"/></svg>