<?xml version="1.0" encoding="utf-8"?>
<!-- Generator: Adobe Illustrator 19.1.0, SVG Export Plug-In . SVG Version: 6.00 Build 0)  -->
<svg version="1.1" id="Calque_1" xmlns="http://www.w3.org/2000/svg" xmlns:xlink="http://www.w3.org/1999/xlink" x="0px" y="0px"
	 viewBox="280.9 263 888.3 268.8" style="enable-background:new 280.9 263 888.3 268.8;" xml:space="preserve">
<style type="text/css">
	.st0{fill:#FFD700;}
	.st1{fill:#006134;}
</style>
<g>
	<path class="st0" d="M454.9,419.2c9.7-4.1,41.3,4.6,67.9,20.9c26.6,16.3,37.7,30.8,36.9,32.9c-0.9,2.1-23.8-6.6-40.4-14.3
		c-15.9-7.3-36.5-10.4-49.7-4.8s-25.5,22.5-31.3,39c-6.1,17.2-15.9,39.7-18,38.9c-2.1-0.9-4.7-19,2.2-49.4
		C429.2,452,445.2,423.3,454.9,419.2"/>
	<path class="st0" d="M280.9,434.4c-1.3-3.3,37.3-15.6,59-19.7c28.6-5.5,75.1-7.8,79-0.6c5.4,10.2-16.2,43.1-32.6,61.5
		c-15.3,17.1-45.7,41-47.1,39.7s15.5-23.7,26.3-40.8c10.9-17.1,15.6-29.7,13.5-35.7c-3.6-10.6-33.4-10.6-54.3-7.7
		C303.7,434,281.4,436.6,280.9,434.4"/>
	<path class="st0" d="M587.3,305.4c-1.5-3.2-37.2,15.8-55.3,28.4c-24,16.7-58.1,48.2-55.6,56c3.4,11,42.1,18.6,66.8,19.7
		c22.9,1.1,61.3-4,61.3-5.9s-27.8-5.5-47.6-9.7c-19.8-4.2-32.1-9.6-34.9-15.3c-5-10,15.8-31.3,32.5-44.2
		C571,321.5,588.6,307.3,587.3,305.4"/>
	<path class="st0" d="M362.1,290.6c3-2.3,30.8,27.7,42,46.4c11.3,18.6,21,38.7,16.4,46.3c-4.7,7.6-40.6,7.6-67.5,4.9
		s-64.8-12.3-63.9-15.9c1-3.6,19.4-0.9,38.2-0.7c18.8,0.2,51.3,1.6,58.1-7.9s-4.5-31.2-9.1-39.9
		C371.7,315.2,359.7,293.1,362.1,290.6"/>
	<path class="st0" d="M422.8,263c-3.8,0.5-1.7,41.4,3.8,62.5s13,42.1,21.7,44.1c8.7,2,33.9-23.7,50.7-44.9
		c16.8-21.1,36.5-55,33.3-56.7c-3.3-1.8-14.2,13.2-27.2,26.8c-13,13.6-34.7,37.8-46.2,36c-11.5-1.8-19.2-25-22.2-34.4
		C433.6,287.1,426.3,263,422.8,263"/>
	<path class="st1" d="M924.4,359.2h-32.1c-9.5,0-17.3,7.7-17.3,17.2v81.5c0,4.3,3.5,7.7,7.7,7.7c4.3,0,7.7-3.5,7.7-7.7v-20.5h33.9
		c9.5,0,17.3-7.7,17.3-17.3v-43.7C941.7,366.9,933.9,359.2,924.4,359.2 M926.2,418.5c0,1.9-1.5,3.4-3.4,3.4h-32.4V378
		c0-1.9,1.5-3.4,3.4-3.4h29c1.9,0,3.4,1.5,3.4,3.4V418.5z M829.1,357.1c-7.8-0.7-15.8,2-21.1,7.8c-5.3-5.9-13.3-8.5-21.1-7.8
		c-7.5,0.7-14.2,4.6-18.3,10.9c-5,7.6-5.3,17.8-5.3,26.1v37.6c0,4.3,3.5,7.7,7.7,7.7s7.7-3.4,7.7-7.7v-37.6
		c0-11.8,0.9-21.8,10.8-21.8c9.8,0,10.8,10,10.8,21.8v37.6c0,4.3,3.5,7.7,7.7,7.7c4.3,0,7.7-3.4,7.7-7.7v-37.6
		c0-11.8,0.9-21.8,10.8-21.8c9.8,0,10.8,10,10.8,21.8v37.6c0,4.3,3.5,7.7,7.7,7.7s7.7-3.4,7.7-7.7v-37.6c0-8.2-0.3-18.5-5.3-26.1
		C843.3,361.7,836.6,357.8,829.1,357.1 M971.7,357c-4.3,0-7.7,3.5-7.7,7.7v67c0,4.3,3.5,7.7,7.7,7.7c4.3,0,7.7-3.4,7.7-7.7v-67
		C979.4,360.5,975.9,357,971.7,357 M971.7,324.1c-4.5,0-8.1,3.6-8.1,8.1v6.2c0.1,4.4,3.7,8,8.1,8c4.4,0,8.1-3.6,8.1-8v-6.2
		C979.8,327.7,976.2,324.1,971.7,324.1 M1073.3,357c-4.3,0-7.7,3.5-7.7,7.7v67c0,4.3,3.4,7.7,7.7,7.7c4.2,0,7.7-3.4,7.7-7.7v-67
		C1081,360.5,1077.5,357,1073.3,357 M1073.3,324.1c-4.5,0-8.1,3.6-8.1,8.1v6.2c0.1,4.4,3.7,8,8.1,8c4.4,0,8-3.6,8.1-8v-6.2
		C1081.4,327.7,1077.7,324.1,1073.3,324.1 M1043,361.2c-2.1-1.5-5.9-2.1-10.6-2.1H1019c-9.5,0-17.2,7.7-17.2,17.2v55.4
		c0,4.3,3.5,7.7,7.7,7.7s7.7-3.5,7.7-7.7v-53.8c0-1.9,1.5-3.4,3.4-3.4h11.9c1.6,0,3.1,0.5,4.2,1.3l7.4,5.5c1.3,1,3.4,1.3,5.3,1.2
		c3.8-0.3,6.6-3.3,6.8-7.5c0.1-2.3-0.8-4.6-2.5-5.9L1043,361.2z M1162.2,409l-40.4-30.8c-0.6-0.5-1.1-1.3-1.1-2.2
		c0-1.7,1.2-2.7,2.7-2.7h17.6c1.6,0,3.1,0.5,4.2,1.4l7.4,5.5c1.3,1,3.4,1.3,5.3,1.2c3.8-0.3,6.6-3.3,6.8-7.5
		c0.1-2.3-0.8-4.6-2.4-5.9l-8.9-6.7c-2.1-1.5-5.9-2.1-10.6-2.1H1123c-9.8,0.1-18.1,6.1-21.4,14.7c-0.4,1.1-0.6,2.3-0.6,3.5
		c0,3.1,2.6,5.9,4.9,7.6l42.3,32.4c1,0.8,1.4,2,1.1,3.2c-0.3,1.5-1.3,2.5-2.7,2.5h-23.8c-1.6,0-3-0.5-4.2-1.3l-7.4-5.5
		c-1.3-1-3.4-1.3-5.3-1.2c-3.8,0.4-6.6,3.3-6.8,7.5c-0.1,2.3,0.8,4.6,2.4,5.9l8.9,6.7c2.1,1.5,5.9,2.1,10.6,2.1c0,0,26.1,0,26.4,0
		c12.4,0,18.4-5,20.7-10.9C1170.4,420.5,1169.3,414.4,1162.2,409 M746,425.4l-5.4-4.2c-1.2-1-2.4-3.6-2.4-5.2v-39.6
		c0-9.5-7.7-17.2-17.2-17.2h-21.6c-4.8,0-8.6,0.6-12.4,3.1l-5.3,4.2c-1.7,1.4-2.9,3.5-3.1,5.9c-0.4,4.3,2.8,7.9,6.9,8
		c1.8,0,3.8-0.4,5.2-1.5l5.1-3.9c1.2-0.9,2.8-1.4,4.4-1.4h19.3c1.9,0,3.4,1.5,3.4,3.4v15h-30.3c-11.9,0-21.6,10.4-21.6,22.3
		s9.7,23,21.6,23h22.1c5.4,0,11.7-1.3,15.8-4.5l6.7,5.1l0,0c1.3,1,2.9,1.6,4.7,1.6c4.3,0,7.7-3.5,7.7-7.7
		C749.4,429.1,748,426.8,746,425.4 M722.6,418.5c0,1.9-1.5,3.4-3.4,3.4h-26.6c-3.4,0-6.5-3.5-6.5-7.6c0-3.9,3.1-6.9,6.5-6.9h30
		V418.5z M654,423l-8.1-0.5c-7.9,0-14.3-6.4-14.3-14.4v-75.6c0-4.7-3.8-8.5-8.5-8.5s-8.5,3.8-8.5,8.5v74.3c0,15.5,5.6,22.1,12.6,27
		l0,0c5.6,3.7,15.3,5.6,26.2,5.6c4.7,0,8.2-3.1,8.5-7.8C662.2,427,658.7,423,654,423"/>
</g>
</svg>
