<svg viewBox="73 -7 170 39" id="svg-logo" xmlns="http://www.w3.org/2000/svg" width="100%" height="100%" >
	<style>
		* {
		fill: #3680DA;
    color: #909fab;
		}
	</style>
	<path class="dvst0" d="M82.15-5.98s-.79.23-2 .92c-1.21.68-2.85 1.9-4.1 3.88-.63.98-1.11 2.16-1.43 3.44-.3 1.28-.43 2.72-.36 4.15.14 2.9 1.2 5.9 2.76 8.64.77 1.38 1.63 2.71 2.54 4 .91 1.27 1.83 2.59 2.56 3.98.72 1.37 1.3 2.9 1.15 4.47a4.79 4.79 0 0 1-.73 2.12c-.41.58-.87 1.1-1.42 1.48-1.17.79-2.47.74-3.45.55-1-.2-1.81-.55-2.45-.86-.64-.31-1.11-.62-1.43-.83-.32-.21-.47-.34-.47-.34s.7.41 2.01.9c.65.24 1.47.49 2.42.58.93.08 2.04-.02 2.87-.68.82-.7 1.54-1.8 1.57-3.01.06-1.22-.48-2.53-1.19-3.79-.72-1.27-1.64-2.48-2.57-3.79-.93-1.3-1.85-2.66-2.65-4.1-.8-1.44-1.48-2.96-1.97-4.53-.51-1.55-.78-3.17-.81-4.74-.03-1.58.18-3.08.59-4.47.4-1.39 1.03-2.62 1.78-3.63.74-1.02 1.6-1.8 2.41-2.38.82-.59 1.59-1 2.24-1.29.65-.29 1.19-.44 1.56-.54.37-.1.57-.13.57-.13"></path><path d="M85.04-5.32c-1.42.59-3 1.56-4.53 3.57-.74 1.01-1.38 2.27-1.8 3.7-.09.37-.22.71-.28 1.12-.06.37-.12.74-.19 1.12-.07.8-.11 1.64-.04 2.45.12 1.65.55 3.31 1.18 4.87.63 1.57 1.45 3.05 2.35 4.44a52 52 0 0 0 2.86 3.97c1.02 1.28 2.56 3.34 3.36 5 .87 1.79 1.35 3.57 1.53 6.57 0 0 5.06-1.91 6.05-10.55h-4.72c-2 0-3.51-1.38-3.51-1.38h8.99c4.17 0 3.89-7.06 3.89-7.06h-9.43c-2.03 0-3.76-1.38-3.76-1.38h14.11c4.04 0 4.29-7.59 4.29-7.59H90.75c-2.37 0-4.29-1.38-4.29-1.38h19.77c3.98 0 4.72-8.28 4.72-8.28H89.6c-.76 0-3.24.26-4.56.81m36.6 24.55c0-.19.08-.39.23-.59.15-.2.32-.3.5-.3.13 0 .29.1.49.31l.68.7c.24.26.63.49 1.15.69s1.14.3 1.83.3c1.15 0 2.04-.29 2.67-.86.63-.57.95-1.4.95-2.48 0-.73-.15-1.34-.45-1.85-.3-.51-.68-.9-1.15-1.17-.45-.29-.97-.55-1.55-.77l-1.75-.68c-.58-.23-1.1-.5-1.56-.81-.46-.31-.84-.76-1.14-1.33-.3-.57-.45-1.26-.45-2.05 0-.84.16-1.57.47-2.18.32-.61.74-1.07 1.27-1.38a6.23 6.23 0 0 1 1.64-.67c.56-.14 1.14-.21 1.76-.21.99 0 1.91.14 2.78.42.87.28 1.3.63 1.3 1.05 0 .19-.07.39-.21.59-.14.2-.3.3-.5.3-.1 0-.28-.07-.56-.22-.27-.15-.66-.3-1.15-.45-.49-.15-1.06-.22-1.69-.22-1.02 0-1.86.22-2.52.65-.66.44-.99 1.15-.99 2.16 0 .69.2 1.28.59 1.74.4.47.89.81 1.49 1.02.6.21 1.24.46 1.94.75s1.34.6 1.94.93c.6.33 1.09.86 1.49 1.57.4.72.59 1.6.59 2.65 0 1.65-.46 2.9-1.38 3.72-.92.83-2.17 1.24-3.74 1.24-1.41 0-2.59-.3-3.54-.9-.95-.58-1.43-1.14-1.43-1.67m16.83 1.79V4.56c0-.19.07-.34.22-.45.15-.1.32-.16.51-.16h8.63c.4 0 .61.23.61.7 0 .21-.05.39-.16.54a.52.52 0 0 1-.45.23h-7.76v6.66h3.81c.19 0 .34.07.45.21.1.14.16.31.16.52 0 .44-.2.65-.61.65h-3.81v6.71h7.76c.18 0 .32.07.44.22.11.15.17.32.17.53 0 .48-.2.73-.61.73h-8.63c-.19 0-.36-.06-.51-.17a.555.555 0 0 1-.22-.46m17.81-8.81h3.3c2.42 0 3.64-1.14 3.64-3.41 0-2.24-1.21-3.37-3.64-3.37h-3.3v6.78zm-1.61 8.81V4.53c0-.36.2-.55.61-.58h4.29c1.57 0 2.83.37 3.79 1.11.96.74 1.44 1.96 1.44 3.66 0 2.68-1.26 4.24-3.78 4.67l3.74 7.17c.06.08.1.19.1.31 0 .21-.1.4-.29.57-.19.17-.4.25-.63.25-.29 0-.57-.28-.85-.85l-3.73-7.26h-3.08v7.43c0 .19-.08.35-.24.46-.16.11-.35.17-.56.17a.94.94 0 0 1-.57-.17.496.496 0 0 1-.24-.45zm18.49-4.89h5.87l-2.93-9.78-2.94 9.78zm-3.11 4.84c0-.08.01-.14.02-.17l5.07-16.44c.11-.37.43-.56.94-.56s.84.19.96.56l5.06 16.48c0 .02 0 .04.01.07.01.03.01.05.01.07 0 .18-.11.34-.32.47-.21.13-.43.2-.65.2-.31 0-.51-.14-.61-.41l-1.12-3.73h-6.7l-1.12 3.73c-.07.27-.28.41-.64.41-.23 0-.44-.06-.63-.19-.18-.13-.28-.29-.28-.49zm19.91-7.87h3.49c1.1 0 1.95-.31 2.55-.92.6-.61.9-1.54.9-2.78v-.29c0-2.45-1.15-3.68-3.45-3.68h-3.49v7.67zm-1.6 7.92V4.53c0-.36.23-.55.68-.58h4.46c1.52 0 2.73.41 3.64 1.24.91.82 1.36 2.12 1.36 3.9v.24c0 1.78-.46 3.08-1.37 3.91-.91.83-2.14 1.25-3.67 1.25h-3.49v6.54c0 .19-.08.35-.24.46-.16.11-.35.17-.56.17a.94.94 0 0 1-.57-.17.553.553 0 0 1-.24-.47zm16.67 0V4.53c0-.39.27-.58.8-.58s.8.19.8.58v7.24h7.01V4.53c0-.39.27-.58.8-.58s.8.19.8.58v16.49c0 .19-.08.35-.24.46-.16.11-.35.17-.56.17a.94.94 0 0 1-.57-.17.55.55 0 0 1-.23-.46v-7.87h-7.01v7.87c0 .19-.08.35-.24.46-.16.11-.35.17-.56.17a.94.94 0 0 1-.57-.17.515.515 0 0 1-.23-.46m17.78 0V4.53c0-.39.27-.58.8-.58s.8.19.8.58v16.49c0 .19-.08.35-.24.46-.16.11-.35.17-.56.17a.94.94 0 0 1-.57-.17.515.515 0 0 1-.23-.46"></path><path class="dvst3" d="M231.97 21.02V4.56c0-.4.27-.61.8-.61.45 0 .87.37 1.26 1.11l6.55 12.88V4.53c0-.39.27-.58.8-.58s.8.19.8.58v16.49c0 .19-.08.35-.24.46-.16.11-.35.17-.56.17-.4 0-.76-.31-1.07-.92l-6.74-13.1v13.39c0 .19-.08.35-.24.46-.16.11-.35.17-.56.17a.94.94 0 0 1-.57-.17.538.538 0 0 1-.23-.46"></path>
</svg>