<svg xmlns="http://www.w3.org/2000/svg" viewBox="0 0 481.89 95.03"><defs><style>.a,.b{fill:#ed1c24;}.b,.d{fill-rule:evenodd;}.c{fill:#464547;}.d,.e{fill:#fff;}</style></defs><title>Asset 11</title><path class="a" d="M151.69,19.14V35c-7.7-1.3-18.42-3.56-24.11,3.33-2,2.73-2.11,7-1.09,10.23,1.2,3.86,5.29,6,9,6.44l.16-15h16.05V69.46c-12.52,2.34-27.17,2.21-36-8-6.52-6.88-7.78-18-4.66-26.83,3.66-10.29,14.46-16.53,25-16.9a69,69,0,0,1,15.66,1.4Z"/><polygon class="a" points="173.25 69.31 156.89 69.31 156.88 18.78 173.24 18.78 173.25 69.31 173.25 69.31"/><path class="a" d="M356.52,20.77c7-4.69,18.43-4,25,.93,5.75,4.71,7.5,11.36,8,18.38V69.31H373.18L373,37.52c-.33-1.4-.72-3-2.17-3.72a5.35,5.35,0,0,0-4,.15c-1.59,1.08-1.71,2.92-1.94,4.65l-.15,30.71H348.3l-.24-31.95c-.25-1.43-.87-3.06-2.32-3.64-1.28-.31-3.08-.5-4.11.46-1.49,1.34-1.61,3.38-1.71,5.35l-.07,29.78H323.72v-32c.58-7.77,5.37-16.26,13.33-18.53,6.17-1.82,14.19-1.59,19.47,2Z"/><polygon class="a" points="411.41 69.31 395.05 69.31 395.05 18.78 411.41 18.78 411.41 69.31 411.41 69.31"/><path class="a" d="M456.84,28.13a27.5,27.5,0,0,1,2.87,11V69.31H443.43l-.12-31c-.37-1.45-.73-3-2.05-4a6.05,6.05,0,0,0-4.73-.54c-2.66,1.06-3.08,4-3.29,6.43l0,29.16H417V37.13c.93-6.75,4.19-13.59,10.7-17.06,6.69-3.47,16.9-3.35,23.1,1.09a20.34,20.34,0,0,1,6,7Z"/><polygon class="a" points="481.65 69.31 465.29 69.31 465.29 18.78 481.65 18.78 481.65 69.31 481.65 69.31"/><path class="b" d="M316.11,29.22c5.06,6.8,6.24,17.79,2.48,25.59a27.36,27.36,0,0,1-22.17,15.74c-9.89.67-18.55-2.93-24.66-10.78-5.37-6.71-6.65-17.41-3.25-25.43,3.56-9.46,13.51-16.07,23.33-16.68,9.87-.44,18.48,3.5,24.27,11.56Zm-13.88,8.61a10.87,10.87,0,0,1,1.63,9.3,10.73,10.73,0,0,1-7.36,7.21,11,11,0,0,1-10-2.56,10.66,10.66,0,0,1-3.1-9.85,10.54,10.54,0,0,1,18.84-4.1Z"/><path class="b" d="M203.71,34.65c1.92,2.5,1.49,6,1.56,9.22H195.19c.32-3.64-.84-8.47,3.1-10.07,1.8-.41,4-.39,5.42.85Zm14.89-6.83a29.8,29.8,0,0,1,3,10.47c.29,10.23.09,20.68.15,31H205.34v-11H195.11v11H178.8l.26-31.95c.6-7.81,5.41-16.32,13.41-18.61,9.73-2.67,21.3-.7,26.13,9.07Z"/><path class="a" d="M241.64,44.05a9.84,9.84,0,0,0,1.69,5.66c5.22,6,12.36,4.77,21.48,3.79V70.16a88.06,88.06,0,0,1-13.14.86c-10.56-.32-21.69-6.73-25.42-17.21a29.55,29.55,0,0,1,0-19.3C230,24,240.73,17.94,251.3,17.62a74.64,74.64,0,0,1,13,.94V34.93c-7-1.41-14.95-2.9-21,3.64-1.21,2.26-1.68,3.26-1.69,5.48Z"/><path class="c" d="M271.61,94.16h-4.15l-1.75-4.76c0-.12-.08-.19-.21-.19s-.19.07-.23.19l-1.65,4.76h-4.16A40.14,40.14,0,0,1,257,78.63h4.14c0,1.77.21,4.64.28,6a45.41,45.41,0,0,0,.46,4.86l.09,0c.15-.72.63-2.58.78-3.15l.78-3h4.14l.79,3c.14.57.63,2.43.78,3.15l.08,0a48,48,0,0,0,.47-4.86c.06-1.34.29-4.21.27-6h4.08A40.33,40.33,0,0,1,271.61,94.16Z"/><path class="c" d="M288.44,94.09c-.15-.5-.36-1.41-.59-2.36h-4.61c-.23,1-.46,1.86-.61,2.36h-4.25s.57-2.13,2.35-8,2.38-7.46,2.38-7.46H288s.59,1.52,2.39,7.48,2.35,8,2.35,8Zm-2.66-10.26c-.09-.24-.13-.24-.24-.24s-.14,0-.23.24c-.21.63-1,3.42-1.22,4.37H287C286.77,87.25,286,84.46,285.78,83.83Z"/><path class="c" d="M303.83,82.11c0,1.4.05,2.39.05,4.84,0,2.16,0,4.31,0,7.14H300c0-4.48,0-4.54,0-8.11V82.11c-1.82,0-4,.07-4,.07V78.67s2.46-.07,5.06-.07,6.74.07,6.74.07v3.48S305.67,82.11,303.83,82.11Z"/><path class="c" d="M318.44,94.16c-2.55,0-4.75-.07-4.75-.07.06-4.45,0-4.5,0-8.07,0-2.22,0-4.44,0-7.31,0,0,2.2-.06,4.77-.06s5.71.06,5.71.06V82.2s-3.61,0-4.73,0h-1.91c0,.39,0,1,0,1.63,0,.17.07.36.38.36h5.86v3.7l-5.83,0c-.32,0-.36.17-.36.34,0,1.16-.05,1.82-.05,2.45h1.91l4.73,0v3.48S321,94.16,318.44,94.16Z"/><path class="c" d="M338,94.09,335.21,89c-.17-.31-.17-.29-.38-.29,0,1.56,0,2,.06,5.36H331c.06-4.48,0-4.54,0-8.11,0-2.22,0-4.46,0-7.35h6.2c3.29,0,4.58,2.7,4.58,5A4.43,4.43,0,0,1,339.31,88c-.3.17-.32.29-.15.55l3.38,5.55Zm-1.33-12h-1.82c0,.91,0,2.31,0,3.21.51,0,1.93,0,1.93,0,.65,0,1-.78,1-1.6S337.32,82.11,336.67,82.11Z"/><path class="a" d="M362.59,94.16c-2.56,0-4.75-.07-4.75-.07.06-4.45,0-4.5,0-8.07,0-2.22,0-4.44,0-7.31,0,0,2.19-.06,4.77-.06s5.71.06,5.71.06V82.2s-3.62,0-4.74,0h-1.9c0,.39,0,1,0,1.63,0,.17.07.36.38.36h5.86v3.7l-5.84,0c-.31,0-.36.17-.36.34,0,1.16,0,1.82,0,2.45h1.9l4.74,0v3.48S365.17,94.16,362.59,94.16Z"/><path class="c" d="M372,88.77V86h6.15v2.81Z"/><path class="c" d="M396,86c0,3.57-.08,3.65,0,8.13h-4c0-1.54,0-2.64,0-4.12,0-1.22.15-2.87.15-3.82l-.11,0-2,5h-2.75l-2-5-.11,0c0,.95.08,2.64.13,3.87,0,1.48.06,2.45.06,4.07h-4c.06-4.48,0-4.56,0-8.13,0-2.22,0-4.44,0-7.33H386l2.53,6.44c.07.15.15.17.24.17s.14,0,.21-.19l2.53-6.42H396C396,81.52,396,83.74,396,86Z"/><path class="c" d="M413.79,93.4a6.63,6.63,0,0,1-4.65,1.41,6.79,6.79,0,0,1-4.71-1.41c-1.67-1.61-2.12-4.31-2.12-6.85s.42-5.2,2.1-6.8a6.59,6.59,0,0,1,4.69-1.44,6.71,6.71,0,0,1,4.73,1.44c1.67,1.6,2.09,4.26,2.09,6.8S415.46,91.79,413.79,93.4Zm-3-11a3.54,3.54,0,0,0-3.42,0c-.7.7-1,2.18-1,4.12s.3,3.4,1,4.12a2.58,2.58,0,0,0,1.71.45,2.62,2.62,0,0,0,1.71-.45c.7-.72,1-2.2,1-4.12S411.53,83.13,410.83,82.43Z"/><path class="c" d="M429,82.11c0,1.4,0,2.39,0,4.84,0,2.16,0,4.31,0,7.14h-3.89c0-4.48,0-4.54,0-8.11V82.11c-1.82,0-4,.07-4,.07V78.67s2.46-.07,5.05-.07,6.75.07,6.75.07v3.48S430.83,82.11,429,82.11Z"/><path class="c" d="M438.87,94.09c0-4.16,0-4.24,0-8,0-2.38,0-5,0-7.43h3.89c-.05,4.16,0,4.67,0,8.47,0,2.3,0,4.59,0,7Z"/><path class="c" d="M460.64,93.4A6.63,6.63,0,0,1,456,94.81a6.79,6.79,0,0,1-4.71-1.41c-1.67-1.61-2.11-4.31-2.11-6.85s.42-5.2,2.09-6.8A6.6,6.6,0,0,1,456,78.31a6.71,6.71,0,0,1,4.73,1.44c1.67,1.6,2.1,4.26,2.1,6.8S462.31,91.79,460.64,93.4Zm-3-11a3.54,3.54,0,0,0-3.42,0c-.7.7-1,2.18-1,4.12s.29,3.4,1,4.12a2.58,2.58,0,0,0,1.71.45,2.62,2.62,0,0,0,1.71-.45c.7-.72,1-2.2,1-4.12S458.38,83.13,457.68,82.43Z"/><path class="c" d="M477.5,94.09l-4.21-7.94c-.11-.19-.34-.15-.34.08,0,.59.09,1.46.09,2,0,1.94.1,4.44.1,5.87h-3.91c.07-4.48,0-4.56,0-8.13,0-1.63,0-2.43,0-3.23s0-1.59,0-4.1h4.71l3.89,7.94c.09.19.32.15.32-.08,0-.6-.06-1.46-.06-2,0-1.94-.11-4.44-.11-5.87h3.91c-.07,4.48,0,4.56,0,8.13V90c0,.79,0,1.59,0,4.1Z"/><path class="a" d="M95,45.86A47.51,47.51,0,1,0,49.18,95,47.53,47.53,0,0,0,95,45.86Z"/><path class="d" d="M84.19,36.85c1,3.18,2.14,6.4,1.67,10-.3.92-1.5,1-2.26.59-1.72-1-.66-2.32-1.38-6.1-.82-5.09-1.77-10-5.31-13.69.61-.76,1.42.12,2.06.39,2.54,2.52,3.89,5.59,5.22,8.76Zm-8-5.7a67.83,67.83,0,0,1,6.11,22.54,1.68,1.68,0,0,1-1.18,1.87,2,2,0,0,1-2.46-1.38c-.76-9.65-1.9-19.15-6.1-27.36,0-.4.51-.5.78-.3l2.85,4.63Z"/><path class="e" d="M73.16,20.39s0-.2-.28-.28h0c-1.41-.3-2.64-.41-4.89-3.76a10.17,10.17,0,0,1-1.18-4.61C66.7,9.83,66.13,7.1,64.52,6s-6.69,1.16-10.45,7.6a9.23,9.23,0,0,1-3.66,3.58s-2.27,1-6.71,2.63c-3.28,1.17-6.06,2.43-7.2,4.32-.41.66-.22,1.4-.24,2.24-.07,3.2,1.54,8.91,1.54,8.91s3.38,9.5-.66,16.79c-2.26,3.58-4,6.75-1.67,11.32a40.48,40.48,0,0,1,2.86,5.9c1.43,3.78,4.51,7,4.06,7.81-.28.16-1.22-.46-2.07-.58s-2.13-.38-5.69,1.12c-4,1.7-5.11.91-5.77.46S27.62,76.5,26,77.22c-.52.23-.83.29-2.8,2.69-.52.73-2.49,1-2.49,1s-1.69.27-1.92.86.34.61.86.48a8.25,8.25,0,0,1,2.17-.2,18.75,18.75,0,0,0,4.48-.64,12.35,12.35,0,0,1,5.92.25c2.81.61,12.68.86,14.8.14.43-.12,2.06-.43,1.86-2.79a34.47,34.47,0,0,0-1.68-9.75c-1.13-3.44-1.57-4.75-1.73-5.23,0-.11,0-.28.26-.29l.19,0c1.83-.11,7.83-.65,10.51-3,.62-.41,1.43-.86,1.57-.73a1.1,1.1,0,0,1,.38,1.41c-.36.9-1.85,4.86-1.58,7.42a43,43,0,0,0,.74,5.85h0c.06.26.12.52.19.79a3.63,3.63,0,0,1,0,1.85l0,0a5.38,5.38,0,0,0-.92,3.37c.22,1.38,2.1,1.09,2.53,1a11.79,11.79,0,0,1,4.3.39c1.49.56,4.55.92,5.14,0,.31-.4-.09-1-.77-.9-1.38.1-2.84-1.09-3.45-1.39s-1.6-1-3-1.8c-.59-.54-.73-2,.13-7.83.16-1.11,1.81-7.7,1.81-7.7s.43-1.9.84-3.19.79-5.52-2.06-6.06-4.21-1-12.92,1.08c-1.29.16-1.33-1.58-.91-2.8a8.73,8.73,0,0,1,2.06-3.58c2-.15,3.19-1.06,3.38-2.56.15-1.73-1.75-3.37,1.4-5.11l.27-.15c1-.54,3.87-2.58,5.64-3.87.19-.14,1.3-1.1,1.44-1.22.39-.39.38-1.13.13-3.36-.31-2.72-.84-6.93-.9-9.54,0-.19.07-.37.11-.54h0c0-.17.08-.32.12-.47h0c.38-1.09,1.44-2.47,3.69-1.4a10.44,10.44,0,0,1,3.91,4.12h0a.32.32,0,0,0,.36.13,3.59,3.59,0,0,0,3.13-3.67ZM44.84,29.05l.49,4.44c-.32.78-2,.81-2.17.19-.86-2.78-2.54-7.13-1.8-7.75,2.7-2.25,6.75-5.14,11-5.14,0,0,.38,0,.44.51.09.91-2.31,1.09-3.49,1.65A7.3,7.3,0,0,0,44.84,29.05Zm14,4.14c-2.07,2.14-6.27,4-9.84,3.15-.2-2.61,2.81-2,4.82-3.15a7,7,0,0,0,3.45-3.94C58.94,29.74,59.2,31.76,58.81,33.19ZM58.32,24c-1.06.08-1.2-.76-1.38-1.57a3.16,3.16,0,0,1,.5-2.07C58.5,20,59,21,59.11,21.77,59.36,22.61,59.13,23.76,58.32,24Z"/></svg>