<svg xmlns="http://www.w3.org/2000/svg" viewBox="0 0 568.17 128"><defs><style>.a{fill:#0082a7;}.b{fill:#fff;}.c{fill:#1b1a19;}</style></defs><title>Asset 11</title><path class="a" d="M128,64A64,64,0,1,1,64,0a64,64,0,0,1,64,64"/><path class="b" d="M26.64,64l34-33.94A17.14,17.14,0,1,1,84.83,54.3L50.89,88.24ZM53.15,90.51l7.44,7.43A17.14,17.14,0,0,0,84.83,73.7l-7.44-7.44Z"/><path class="a" d="M75.74,39.15a4.29,4.29,0,1,1-6.06,0,4.29,4.29,0,0,1,6.06,0"/><path class="a" d="M75.74,82.79a4.29,4.29,0,1,1-6.06,0,4.29,4.29,0,0,1,6.06,0"/><path class="c" d="M172.65,62.06,194,37.73a1.13,1.13,0,0,1,.81-.37.93.93,0,0,1,1.05,1,1,1,0,0,1-.31.74L181.13,55.31l16.47,23.1a1,1,0,0,1,.19.62.92.92,0,0,1-.31.68,1,1,0,0,1-.74.31,1.07,1.07,0,0,1-.87-.49l-16-22.67-7.18,8V79a1,1,0,0,1-2,0V38.35a1,1,0,0,1,2,0Zm31.64,18a.88.88,0,0,1-.65-.28.9.9,0,0,1-.28-.65V51.85a.9.9,0,0,1,.28-.65.88.88,0,0,1,.65-.28,1,1,0,0,1,.93.93v4.64a9.35,9.35,0,0,1,3.31-4.12,10.5,10.5,0,0,1,6.41-1.82q11.09,0,11.09,11V79.09a.86.86,0,0,1-.28.65.88.88,0,0,1-.65.28,1,1,0,0,1-.93-.93V61.51a10.57,10.57,0,0,0-2-6.85c-1.37-1.67-3.78-2.5-7.25-2.5q-4.71,0-7.18,3a10.59,10.59,0,0,0-2.48,7v17a1,1,0,0,1-.93.93Zm40.56-29.47q6.08,0,9.39,3.71t3.31,11.15q0,7.49-3.31,11.21t-9.39,3.71q-6.06,0-9.38-3.71t-3.31-11.21q0-7.44,3.31-11.15t9.38-3.71Zm0,28.17q10.72,0,10.72-13.31T244.85,52.16q-10.71,0-10.71,13.25t10.71,13.31Zm34.5-24.33-7.44,25A.84.84,0,0,1,271,80a.77.77,0,0,1-.81-.62l-9.91-27.06a2.11,2.11,0,0,1-.12-.49q0-.93.87-.93a.8.8,0,0,1,.86.62L271,77l7.55-25.51a.67.67,0,0,1,.74-.56c.46,0,.73.18.81.56L287.64,77l9.17-25.45a.81.81,0,0,1,.87-.62.76.76,0,0,1,.86.86,2,2,0,0,1-.12.56L288.51,79.4a.81.81,0,0,1-.87.62.84.84,0,0,1-.92-.62Zm25.57-19a1,1,0,0,1,.93.93v37a6.42,6.42,0,0,0,.93,3.88,3.52,3.52,0,0,0,3,1.2.81.81,0,1,1,0,1.61Q304,80,304,73.33v-37a.9.9,0,0,1,.28-.65.88.88,0,0,1,.65-.28Zm9.29,30q0-7.12,3.31-11t9.32-3.87a14,14,0,0,1,6.1,1.2A8,8,0,0,1,336.57,55a14.93,14.93,0,0,1,1.51,3.75,18.55,18.55,0,0,1,.28,6,1.19,1.19,0,0,1-1.36,1H316.13q0,13.07,11.39,13.06a13.25,13.25,0,0,0,8.74-3.09.78.78,0,0,1,.49-.19.72.72,0,0,1,.81.81,1.06,1.06,0,0,1-.38.68,13.58,13.58,0,0,1-9.66,3.4q-13.31,0-13.31-14.92Zm22.48-3a15.18,15.18,0,0,0-.43-3.71,10.31,10.31,0,0,0-1.49-3.22A6.87,6.87,0,0,0,331.7,53a12.39,12.39,0,0,0-4.86-.86q-5.13,0-7.83,3.12t-2.88,8.83h20.5q.06-1.24.06-1.74Zm29.1,5.95V59.4l-.31-.8a10.09,10.09,0,0,0-1-1.74,11.79,11.79,0,0,0-1.89-2.2,10.15,10.15,0,0,0-2.88-1.73,10,10,0,0,0-4-.77Q345,52.16,345,65.41T355.7,78.72a10.23,10.23,0,0,0,7.34-2.6c1.84-1.73,2.75-4.33,2.75-7.8ZM355.7,50.55a12,12,0,0,1,3.93.62,9.4,9.4,0,0,1,2.91,1.48,17.68,17.68,0,0,1,1.86,1.7,6.47,6.47,0,0,1,1.08,1.46l.31.62V36.37a1,1,0,0,1,.93-.93,1,1,0,0,1,.93.93V68.32q0,5.82-3.28,8.92a12.14,12.14,0,0,1-8.67,3.09q-6.07,0-9.38-3.71T343,65.41q0-7.44,3.31-11.15t9.38-3.71Zm19.51,10a9.57,9.57,0,0,1,2.88-7.34c1.92-1.8,4.61-2.69,8.08-2.69a12.84,12.84,0,0,1,7.12,1.85q1.11-3.65,5.57-3.65a.81.81,0,1,1,0,1.61,4.82,4.82,0,0,0-2.94.74,4.28,4.28,0,0,0-1.39,2.36,9.89,9.89,0,0,1,2.6,7.12,9.58,9.58,0,0,1-2.88,7.34q-2.88,2.68-8.08,2.69A13,13,0,0,1,379.36,69a3.1,3.1,0,0,0-2.67,3.22A2.76,2.76,0,0,0,378,74.76a9,9,0,0,0,4.43.8h7.74a11.64,11.64,0,0,1,7.06,2A6.86,6.86,0,0,1,400,83.49a6.91,6.91,0,0,1-3.53,6.44c-2.36,1.36-5.53,2-9.54,2a25.77,25.77,0,0,1-4.71-.4,16.9,16.9,0,0,1-4.08-1.3,7.28,7.28,0,0,1-3-2.57,7,7,0,0,1-1.11-4,6.65,6.65,0,0,1,1.58-4.55,6.91,6.91,0,0,1,3.81-2.33,11.26,11.26,0,0,1-1.58-.49,8,8,0,0,1-1.33-.74,3,3,0,0,1-1.12-1.37,5.09,5.09,0,0,1-.37-2A4.12,4.12,0,0,1,378.12,68q-2.91-2.6-2.91-7.43Zm20,0a8.26,8.26,0,0,0-2.29-6.23q-2.3-2.19-6.75-2.19t-6.75,2.19a8.22,8.22,0,0,0-2.29,6.23,8.2,8.2,0,0,0,2.29,6.22q2.29,2.2,6.75,2.2t6.75-2.2a8.24,8.24,0,0,0,2.29-6.22Zm2.85,22.91q0-6.26-7.87-6.25h-7.55q-6.75.93-6.75,6.5,0,6.63,11.08,6.62t11.09-6.87ZM403,65.41q0-7.12,3.31-11t9.32-3.87a14,14,0,0,1,6.1,1.2A7.91,7.91,0,0,1,425.37,55a14.56,14.56,0,0,1,1.51,3.75,16,16,0,0,1,.41,3.65,15.57,15.57,0,0,1-.13,2.3,1.19,1.19,0,0,1-1.36,1H404.93q0,13.07,11.4,13.06a13.24,13.24,0,0,0,8.73-3.09.78.78,0,0,1,.49-.19.72.72,0,0,1,.81.81,1.08,1.08,0,0,1-.37.68,13.61,13.61,0,0,1-9.66,3.4Q403,80.33,403,65.41Zm22.48-3a14.71,14.71,0,0,0-.43-3.71,10.31,10.31,0,0,0-1.49-3.22A6.89,6.89,0,0,0,420.51,53a12.48,12.48,0,0,0-4.87-.86q-5.13,0-7.83,3.12t-2.88,8.83h20.5q.06-1.24.06-1.74Zm26.94-22.78V59.4h11.39a10.13,10.13,0,0,0,7.31-2.54q2.65-2.53,2.66-7.37c0-3.26-.89-5.72-2.66-7.4a10.24,10.24,0,0,0-7.31-2.5Zm0,21.55V79a1,1,0,0,1-2,0V38.84a.88.88,0,0,1,1-1H464.5a11.28,11.28,0,0,1,8.12,3q3.15,3,3.15,8.63t-3.12,8.64a11.3,11.3,0,0,1-8.15,3Zm31.27-25.7a.88.88,0,0,1,.65.28.86.86,0,0,1,.28.65v37a6.42,6.42,0,0,0,.93,3.88,3.52,3.52,0,0,0,3,1.2.81.81,0,1,1,0,1.61q-5.76,0-5.76-6.69v-37a.86.86,0,0,1,.28-.65.88.88,0,0,1,.65-.28Zm20.93,16.72a9.68,9.68,0,0,0-5.26,1.2,11,11,0,0,0-3.22,3.32.81.81,0,0,1-.75.43.77.77,0,0,1-.86-.87,1.11,1.11,0,0,1,.18-.55q3.16-5.14,9.91-5.14c3.68,0,6.4.89,8.18,2.69a10.26,10.26,0,0,1,2.66,7.52V79.09a.87.87,0,0,1-1.74,0V75.44q-3,4.83-10.21,4.83-5.2,0-8-2.23a7.61,7.61,0,0,1-2.79-6.32,7.4,7.4,0,0,1,3.07-6.34q3.06-2.27,8.39-2.26h9.53V60.27a7.6,7.6,0,0,0-2.38-6,9.84,9.84,0,0,0-6.72-2.1Zm-1.11,26.5a11.45,11.45,0,0,0,7.27-2.29,7.69,7.69,0,0,0,2.94-6.44V64.67H504.2a12,12,0,0,0-6.94,1.79,6,6,0,0,0-2.6,5.26,6.22,6.22,0,0,0,2.23,5.11q2.24,1.83,6.63,1.83Zm18-26.44a.72.72,0,0,1,.81-.81h18.45a.72.72,0,0,1,.81.81,1.24,1.24,0,0,1-.25.68l-18.21,25h18.09a.81.81,0,0,1,0,1.61H521.35a.71.71,0,0,1-.8-.81,1.05,1.05,0,0,1,.18-.49L539.12,53H522.28a.71.71,0,0,1-.81-.8Zm35.86-.06a9.66,9.66,0,0,0-5.26,1.2,10.89,10.89,0,0,0-3.22,3.32.81.81,0,0,1-.75.43.76.76,0,0,1-.86-.87,1.11,1.11,0,0,1,.18-.55q3.17-5.14,9.91-5.14c3.67,0,6.4.89,8.17,2.69a10.22,10.22,0,0,1,2.67,7.52V79.09a.87.87,0,1,1-1.74,0V75.44q-3,4.83-10.22,4.83c-3.46,0-6.13-.74-8-2.23a7.61,7.61,0,0,1-2.79-6.32,7.4,7.4,0,0,1,3.07-6.34q3.06-2.27,8.39-2.26h9.53V60.27a7.6,7.6,0,0,0-2.38-6,9.84,9.84,0,0,0-6.72-2.1Zm-1.12,26.5a11.47,11.47,0,0,0,7.28-2.29,7.69,7.69,0,0,0,2.94-6.44V64.67H556.9A12,12,0,0,0,550,66.46a6,6,0,0,0-2.6,5.26,6.22,6.22,0,0,0,2.23,5.11c1.49,1.22,3.69,1.83,6.62,1.83Z"/></svg>