<svg xmlns="http://www.w3.org/2000/svg" viewBox="0 0 767.83 168.92"><defs><style>.a{fill:#627d82;}.b{fill:#a81664;}</style></defs><title>Asset 11</title><path class="a" d="M597.67,158.18c0-5.29,3.58-9,8.59-9s8.45,3.72,8.45,9-3.3,9-8.59,9C601.11,167.2,597.67,163.33,597.67,158.18Z"/><path class="a" d="M629.73,165.62c.29-4.72.57-11.73.57-17.88V64h12.45v43.5H643c4.43-7.73,12.45-12.74,23.61-12.74,17.18,0,29.34,14.32,29.2,35.35,0,24.76-15.6,37.07-31.06,37.07-10,0-18-3.87-23.18-13h-.43l-.58,11.45Zm13-27.76a24,24,0,0,0,.57,4.58c2.44,8.73,9.74,14.74,18.9,14.74,13.16,0,21-10.73,21-26.62,0-13.88-7.15-25.76-20.61-25.76-8.58,0-16.6,5.87-19.17,15.46a24.55,24.55,0,0,0-.72,5.15Z"/><path class="a" d="M718.74,133.28c.29,17,11.16,24,23.76,24,9,0,14.45-1.57,19.17-3.57l2.15,9c-4.44,2-12,4.29-23,4.29-21.32,0-34.06-14-34.06-34.92S719,94.78,739.21,94.78c22.61,0,28.62,19.9,28.62,32.64a48.09,48.09,0,0,1-.43,5.86Zm36.92-9c.15-8-3.29-20.46-17.46-20.46-12.73,0-18.32,11.73-19.32,20.46Z"/><polygon class="b" points="341.59 160.27 341.59 67.71 313.83 67.71 313.83 71.42 321.81 75 321.81 167.55 349.55 167.55 349.55 163.84 341.59 160.27"/><path class="b" d="M96.15,127.72H90c-3.5,27.1-15,30.63-38,30.63H33v-146H0v3.16L10.31,20.6v147h83Z"/><path class="b" d="M306.56,127.72h-6.18c-3.5,27.1-14.95,30.63-38,30.63h-19v-146h-33v3.16l10.3,5.08v147h83Z"/><path class="b" d="M331.69,48.8c6.88,0,12.36-6.69,12.36-15.11s-5.48-15.11-12.36-15.11-12.35,6.69-12.35,15.11S324.81,48.8,331.69,48.8Z"/><path class="b" d="M513.68,82.41V67.71a19.19,19.19,0,0,0-6.87-1.37c-7.09,0-14.81,6-22.39,25.68V67.71H456.68v3.71l8,3.58v92.55h27.74v-3.71l-8-3.57v-60A39.37,39.37,0,0,1,513.68,82.41Z"/><path class="b" d="M125,100.14c-4.26-16.4,5-23.91,12.77-23.91,6.47,0,13.64,5.22,13.64,17.66l.09,20.1c-31.47,4.8-45.73,13.58-45.73,32.55,0,10.69,5.89,22.38,19.23,22.38,12.39,0,19.62-3.52,26.5-11v9.61h27.75v-3.71l-8-3.57V97.52c0-20.73-13.93-29.53-27.05-29.53-17.32,0-36.67,10.28-36.67,28.56a15.86,15.86,0,0,0,2.33,8.51A59.31,59.31,0,0,1,125,100.14M151.49,152c-3.15,2.86-8,4.12-12.35,4.12-7.53,0-12.09-6.25-12.09-16.07,0-9.6,9.23-18.22,24.44-20.18Z"/><path class="b" d="M413.42,67.71c-8,0-15.23,1.51-28.17,10.24V0h-30.2V3.16l10.3,5.08V161.37c8.66,4.33,24.63,7.55,34.06,7.55,36,0,47.66-36.22,47.66-56.3C447.07,83.37,433.53,67.71,413.42,67.71Zm-11.68,94.76a24.21,24.21,0,0,1-16.49-6.86V84.46A28.58,28.58,0,0,1,400,80.35c17.48,0,27.88,21.9,27.88,45C427.84,155.07,411,162.47,401.74,162.47Z"/><path class="b" d="M562.89,159c-12.13,0-27.06-12.12-27.23-44.1h51.49c0-36.54-18.14-47.2-31.58-47.2-20.6,0-41.21,15.89-41.21,52.65,0,25.23,12.93,48.29,41.38,48.29,12,0,23-3.44,30.46-10l-.41-5.21C578.78,157.24,572,159,562.89,159ZM551.55,75.54c12.39,0,14.32,12.18,14.32,32.85H535.66C535.83,90.77,537.93,75.54,551.55,75.54Z"/></svg>