<?xml version="1.0" encoding="UTF-8" standalone="no"?>
<svg width="178px" height="41px" viewBox="0 0 178 41" version="1.1" xmlns="http://www.w3.org/2000/svg" xmlns:xlink="http://www.w3.org/1999/xlink">
    <!-- Generator: Sketch 3.6.1 (26313) - http://www.bohemiancoding.com/sketch -->
    <title>logo-lm</title>
    <desc>Created with Sketch.</desc>
    <defs>
        <linearGradient x1="-0.0103104862%" y1="50.0037436%" x2="100.019859%" y2="50.0037436%" id="linearGradient-1">
            <stop stop-color="#FD8200" offset="0%"></stop>
            <stop stop-color="#FD8400" offset="70.01%"></stop>
            <stop stop-color="#FD8B00" offset="100%"></stop>
        </linearGradient>
        <linearGradient x1="25.9653828%" y1="-84.9828859%" x2="76.8779008%" y2="201.186577%" id="linearGradient-2">
            <stop stop-color="#FD8428" offset="0%"></stop>
            <stop stop-color="#FD8426" offset="48.68%"></stop>
            <stop stop-color="#FD861F" offset="70.23%"></stop>
            <stop stop-color="#FD8812" offset="86.38%"></stop>
            <stop stop-color="#FD8B00" offset="99.84%"></stop>
            <stop stop-color="#FD8B00" offset="100%"></stop>
        </linearGradient>
        <linearGradient x1="40.762766%" y1="67.7704926%" x2="76.3513298%" y2="-0.848275862%" id="linearGradient-3">
            <stop stop-color="#FD8200" offset="0%"></stop>
            <stop stop-color="#FD8314" offset="49.01%"></stop>
            <stop stop-color="#FD8428" offset="90.49%"></stop>
            <stop stop-color="#FA8327" offset="92.75%"></stop>
            <stop stop-color="#F27F24" offset="94.22%"></stop>
            <stop stop-color="#E3791F" offset="95.47%"></stop>
            <stop stop-color="#CE7018" offset="96.59%"></stop>
            <stop stop-color="#B2640F" offset="97.62%"></stop>
            <stop stop-color="#915604" offset="98.58%"></stop>
            <stop stop-color="#855100" offset="98.89%"></stop>
        </linearGradient>
        <linearGradient x1="95.9232292%" y1="65.5628895%" x2="-2.25822917%" y2="33.0943343%" id="linearGradient-4">
            <stop stop-color="#FD8200" offset="0%"></stop>
            <stop stop-color="#FD8428" offset="85.92%"></stop>
            <stop stop-color="#FB8327" offset="90.67%"></stop>
            <stop stop-color="#F48025" offset="92.77%"></stop>
            <stop stop-color="#E77B21" offset="94.36%"></stop>
            <stop stop-color="#D5731B" offset="95.68%"></stop>
            <stop stop-color="#BE6913" offset="96.83%"></stop>
            <stop stop-color="#A15D09" offset="97.86%"></stop>
            <stop stop-color="#855100" offset="98.67%"></stop>
        </linearGradient>
        <linearGradient x1="47.0990476%" y1="30.8057257%" x2="50.4828571%" y2="100.072969%" id="linearGradient-5">
            <stop stop-color="#FD8200" offset="0%"></stop>
            <stop stop-color="#FD8428" offset="80.55%"></stop>
            <stop stop-color="#FB8327" offset="87.79%"></stop>
            <stop stop-color="#F48025" offset="91%"></stop>
            <stop stop-color="#E77B21" offset="93.41%"></stop>
            <stop stop-color="#D5731B" offset="95.43%"></stop>
            <stop stop-color="#BE6913" offset="97.19%"></stop>
            <stop stop-color="#A15D09" offset="98.76%"></stop>
            <stop stop-color="#855100" offset="100%"></stop>
        </linearGradient>
    </defs>
    <g id="Design" stroke="none" stroke-width="1" fill="none" fill-rule="evenodd">
        <g id="Artboard-13" transform="translate(-30.000000, -23.000000)">
            <g id="logo-lm" transform="translate(30.000000, 23.000000)">
                <g id="Calque_1">
                    <path d="M40.6460811,4.48547009 L37.049859,0.105128205 L21.4194497,21.2183761 L14.6304841,15.1910256 L10.7009536,19.9393162 L22.9281088,30.9952991 L40.6460811,4.48547009 Z" id="Shape" fill="url(#linearGradient-1)"></path>
                    <path d="M36.5411252,0.105128205 L5.49081717,0.105128205 L0.105255281,5.32649573 L5.49081717,5.32649573 L32.6466797,5.32649573 L36.5411252,0.105128205 Z" id="Shape" fill="url(#linearGradient-2)"></path>
                    <path d="M0.105255281,35.4457265 L6.70125291,40.8948718 L6.70125291,35.4632479 L5.49081717,5.32649573 L0.105255281,5.32649573 L0.105255281,35.4457265 Z" id="Shape" fill="url(#linearGradient-3)"></path>
                    <path d="M6.66616781,34.7098291 L6.70125291,40.8948718 L34.8745832,40.8948718 L40.3478578,34.7799145 L40.3478578,34.7623932 L34.8745832,34.7623932 L6.66616781,34.7098291 Z" id="Shape" fill="url(#linearGradient-4)"></path>
                    <path d="M34.8219556,28.1568376 L34.8745832,34.7623932 L40.3478578,34.7623932 L38.8567413,21.6038462 L34.8219556,28.1568376 Z" id="Shape" fill="url(#linearGradient-5)"></path>
                    <g id="Group" transform="translate(55.609874, 8.235043)" fill="#4F4D4D">
                        <path d="M0.0175425469,0.192735043 C0.157882922,0.175213675 0.333308391,0.157692308 0.578904047,0.14017094 C0.806957157,0.122649573 0.999925172,0.122649573 1.14026555,0.122649573 C1.24552083,0.122649573 1.43848884,0.122649573 1.6840845,0.14017094 C1.92968016,0.157692308 2.12264817,0.175213675 2.26298855,0.192735043 L2.26298855,20.9555556 C2.26298855,21.5337607 2.33315874,21.9893162 2.47349911,22.3222222 C2.61383949,22.6551282 2.77172241,22.882906 2.98223297,23.0230769 C3.19274353,23.1632479 3.40325409,23.2508547 3.64884975,23.2858974 C3.89444541,23.3209402 4.12249852,23.3384615 4.31546653,23.3384615 C4.56106219,23.3384615 4.82420039,23.3209402 5.0873386,23.2858974 C5.3504768,23.2508547 5.57852991,23.215812 5.75395538,23.1632479 C5.85921066,23.4260684 5.94692339,23.7239316 5.98200849,24.0393162 C6.03463613,24.3547009 6.05217867,24.6525641 6.08726377,24.9153846 C5.77149792,25.0205128 5.42064699,25.1081197 5.01716841,25.1431624 C4.63123238,25.1957265 4.26283889,25.2132479 3.9295305,25.2132479 C3.45588174,25.2132479 2.98223297,25.1606838 2.5085842,25.0555556 C2.03493544,24.9504274 1.61391431,24.7576923 1.24552083,24.4773504 C0.877127344,24.1970085 0.578904047,23.8115385 0.350850938,23.3384615 C0.122797828,22.8478632 0.0175425469,22.217094 0.0175425469,21.4286325 L0.0175425469,0.192735043 L0.0175425469,0.192735043 Z" id="Shape"></path>
                        <path d="M8.4555076,9.6542735 L6.29777433,9.6542735 C6.28023178,9.5491453 6.26268924,9.40897436 6.24514669,9.25128205 C6.22760414,9.09358974 6.22760414,8.91837607 6.22760414,8.74316239 C6.22760414,8.56794872 6.22760414,8.39273504 6.24514669,8.2 C6.26268924,8.02478632 6.28023178,7.86709402 6.29777433,7.76196581 L10.6834111,7.76196581 L10.6834111,24.932906 C10.5430707,24.9504274 10.3676452,24.9679487 10.1220496,24.9854701 C9.89399644,25.0029915 9.70102843,25.0029915 9.56068805,25.0029915 C9.45543277,25.0029915 9.26246475,25.0029915 9.0168691,24.9854701 C8.77127344,24.9679487 8.57830543,24.9504274 8.43796505,24.932906 L8.43796505,9.6542735 L8.4555076,9.6542735 Z M7.3327846,3.57435897 C7.31524205,3.36410256 7.2976995,3.11880342 7.28015696,2.83846154 C7.26261441,2.54059829 7.26261441,2.29529915 7.26261441,2.1025641 C7.26261441,1.92735043 7.26261441,1.69957265 7.28015696,1.43675214 C7.2976995,1.17393162 7.31524205,0.946153846 7.3327846,0.770940171 C7.54329516,0.753418803 7.78889082,0.735897436 8.06957157,0.718376068 C8.36779486,0.700854701 8.61339052,0.700854701 8.80635853,0.700854701 C8.981784,0.700854701 9.20983711,0.700854701 9.47297532,0.718376068 C9.73611352,0.735897436 9.96416663,0.753418803 10.1395921,0.770940171 C10.1571346,0.946153846 10.1746772,1.17393162 10.1922197,1.43675214 C10.2097623,1.69957265 10.2097623,1.92735043 10.2097623,2.1025641 C10.2097623,2.31282051 10.2097623,2.55811966 10.1922197,2.83846154 C10.1746772,3.13632479 10.1571346,3.38162393 10.1395921,3.57435897 C9.96416663,3.59188034 9.73611352,3.60940171 9.47297532,3.62692308 C9.20983711,3.64444444 8.981784,3.64444444 8.80635853,3.64444444 C8.59584797,3.64444444 8.35025232,3.64444444 8.06957157,3.62692308 C7.78889082,3.60940171 7.54329516,3.59188034 7.3327846,3.57435897 L7.3327846,3.57435897 Z" id="Shape"></path>
                        <path d="M14.1042077,22.5850427 C14.595399,22.7952991 15.2444732,22.9529915 16.0338878,23.1106838 C16.8233025,23.2508547 17.577632,23.3209402 18.2968764,23.3209402 C19.6476525,23.3209402 20.7177479,23.0230769 21.5071625,22.4273504 C22.2965771,21.8316239 22.6825131,21.0957265 22.6825131,20.2196581 C22.6825131,19.6064103 22.5597153,19.115812 22.3316622,18.7303419 C22.1036091,18.3448718 21.7878432,18.0119658 21.3843646,17.7316239 C20.9984286,17.4688034 20.5423224,17.2410256 20.0511311,17.0833333 C19.5599398,16.9081197 19.0512059,16.7504274 18.5424721,16.5576923 C17.9811106,16.3824786 17.4197491,16.1722222 16.8759301,15.9444444 C16.3321111,15.7166667 15.8409198,15.4363248 15.4023562,15.0858974 C14.981335,14.7354701 14.6304841,14.3149573 14.3673459,13.824359 C14.1042077,13.3337607 13.9814099,12.7205128 13.9814099,11.967094 C13.9814099,10.6004274 14.4726012,9.4965812 15.4725263,8.63803419 C16.4724515,7.77948718 18.0161956,7.35897436 20.1037587,7.35897436 C20.9808861,7.35897436 21.8229283,7.4465812 22.647428,7.58675214 C23.4719277,7.74444444 24.1034594,7.91965812 24.5595656,8.09487179 C24.4543104,8.74316239 24.2964274,9.39145299 24.0859169,10.0222222 C23.6122681,9.86452991 23.0158215,9.70683761 22.2790345,9.5491453 C21.5422476,9.39145299 20.7879181,9.32136752 19.9985034,9.32136752 C18.6301848,9.32136752 17.6478022,9.56666667 17.0864407,10.0397436 C16.5075366,10.5303419 16.2268559,11.1611111 16.2268559,11.9495726 C16.2268559,12.3700855 16.3145686,12.7380342 16.5075366,13.0358974 C16.7005046,13.3337607 16.9636428,13.5965812 17.2794087,13.8068376 C17.6127171,14.017094 17.9811106,14.2098291 18.3845891,14.3675214 C18.8056103,14.5252137 19.2441739,14.6653846 19.7178227,14.8055556 C20.3318118,15.015812 20.9282584,15.2260684 21.5597901,15.4538462 C22.1737793,15.6816239 22.7351408,15.9970085 23.2438746,16.3824786 C23.7526085,16.7679487 24.1560871,17.2410256 24.4893954,17.8367521 C24.8227038,18.4149573 24.9805868,19.1508547 24.9805868,20.0269231 C24.9805868,20.832906 24.8227038,21.5688034 24.4893954,22.2346154 C24.1560871,22.9004274 23.6999808,23.4611111 23.1210768,23.9166667 C22.5421727,24.3722222 21.8404709,24.7226496 21.0335137,24.9854701 C20.2265566,25.2307692 19.3318867,25.3534188 18.3670466,25.3534188 C17.2969512,25.3534188 16.3321111,25.2833333 15.4900689,25.1431624 C14.6480266,25.0029915 13.9638673,24.8277778 13.4551335,24.6 C13.6130164,23.934188 13.8235269,23.2508547 14.1042077,22.5850427 L14.1042077,22.5850427 Z" id="Shape"></path>
                        <path d="M28.5592663,9.6542735 L25.629661,9.6542735 C25.6121184,9.5491453 25.5945759,9.39145299 25.5770334,9.21623932 C25.5594908,9.04102564 25.5594908,8.86581197 25.5594908,8.67307692 C25.5594908,8.49786325 25.5594908,8.32264957 25.5770334,8.16495726 C25.5945759,8.00726496 25.6121184,7.86709402 25.629661,7.76196581 L28.5592663,7.76196581 L28.5592663,4.53803419 L30.6468294,2.48803419 L30.7871698,2.48803419 L30.7871698,7.77948718 L35.4359447,7.77948718 C35.4534872,7.88461538 35.4710298,8.02478632 35.4885723,8.18247863 C35.5061149,8.34017094 35.5061149,8.51538462 35.5061149,8.69059829 C35.5061149,8.86581197 35.5061149,9.05854701 35.4885723,9.23376068 C35.4710298,9.40897436 35.4534872,9.56666667 35.4359447,9.67179487 L30.7871698,9.67179487 L30.7871698,20.8504274 C30.7871698,21.4111111 30.85734,21.8491453 30.9976803,22.1820513 C31.1380207,22.5149573 31.3309887,22.7602564 31.5765844,22.9354701 C31.8046375,23.1106838 32.0853182,23.2333333 32.3835415,23.2858974 C32.6817648,23.3384615 32.9975307,23.3735043 33.3132965,23.3735043 C34.1027111,23.3735043 34.7868705,23.2683761 35.3657745,23.075641 C35.5236574,23.6538462 35.6289127,24.2846154 35.6990829,24.9679487 C34.8921257,25.2132479 33.9448282,25.3358974 32.8747329,25.3358974 C31.5941269,25.3358974 30.5591167,24.9854701 29.7521595,24.3021368 C28.9627449,23.6188034 28.5592663,22.4974359 28.5592663,20.9555556 L28.5592663,9.6542735 L28.5592663,9.6542735 Z" id="Shape"></path>
                        <path d="M36.9270612,7.67435897 C37.1726568,7.62179487 37.4182525,7.6042735 37.6463056,7.56923077 C37.8743587,7.5517094 38.1199544,7.53418803 38.36555,7.53418803 C38.6111457,7.53418803 38.8391988,7.5517094 39.0497094,7.56923077 C39.2602199,7.58675214 39.488273,7.62179487 39.7338687,7.67435897 C39.8040389,8.00726496 39.8742091,8.44529915 39.9443792,9.00598291 C40.0145494,9.5491453 40.0496345,10.0222222 40.0496345,10.4076923 C40.2601451,10.0047009 40.5057407,9.61923077 40.803964,9.25128205 C41.1021873,8.88333333 41.4705808,8.55042735 41.8740594,8.2525641 C42.2950805,7.95470085 42.7687293,7.72692308 43.3125483,7.5517094 C43.8563672,7.37649573 44.4528138,7.28888889 45.101888,7.28888889 C46.4526641,7.28888889 47.4876744,7.56923077 48.2244614,8.11239316 C48.9612483,8.65555556 49.5050673,9.42649573 49.8910033,10.4252137 C50.1190564,10.0397436 50.3821946,9.6542735 50.715503,9.28632479 C51.0488114,8.9008547 51.3996624,8.56794872 51.8031409,8.27008547 C52.2066195,7.97222222 52.6627257,7.74444444 53.1890021,7.56923077 C53.697736,7.39401709 54.2941826,7.30641026 54.9432568,7.30641026 C56.9431072,7.30641026 58.3991386,7.86709402 59.311351,8.98846154 C60.2235634,10.1098291 60.6796697,11.774359 60.6796697,13.9645299 L60.6796697,24.9679487 C60.434074,25.0205128 60.1533933,25.0380342 59.8376274,25.0730769 C59.5218616,25.0905983 59.2411808,25.1081197 58.9955852,25.1081197 C58.7499895,25.1081197 58.4693088,25.0905983 58.1710855,25.0730769 C57.8728622,25.0555556 57.5921814,25.0205128 57.3465858,24.9679487 L57.3465858,14.9457265 C57.3465858,13.4038462 57.1185326,12.2299145 56.6448839,11.4589744 C56.1712351,10.6880342 55.3993631,10.3025641 54.3117251,10.3025641 C53.1714596,10.3025641 52.2417046,10.7230769 51.5224602,11.5465812 C50.8207583,12.3700855 50.4523648,13.5965812 50.4523648,15.208547 L50.4523648,24.9679487 C50.2067692,25.0205128 49.9260884,25.0380342 49.6278651,25.0730769 C49.3296418,25.0905983 49.0489611,25.1081197 48.8033654,25.1081197 C48.5577698,25.1081197 48.277089,25.0905983 47.9788657,25.0730769 C47.6806424,25.0555556 47.3999617,25.0205128 47.154366,24.9679487 L47.154366,14.7004274 C47.154366,13.1935897 46.9263129,12.0722222 46.4877492,11.3188034 C46.031643,10.5653846 45.3123986,10.1974359 44.330016,10.1974359 C43.7686545,10.1974359 43.2423781,10.3200855 42.7511868,10.5653846 C42.2599954,10.8106838 41.8214318,11.1786325 41.4530383,11.6692308 C41.0846448,12.1598291 40.7864215,12.7905983 40.5759109,13.5440171 C40.3654004,14.2974359 40.2601451,15.1735043 40.2601451,16.1547009 L40.2601451,24.9679487 C40.0145494,25.0205128 39.7338687,25.0380342 39.4356454,25.0730769 C39.1374221,25.0905983 38.8567413,25.1081197 38.6111457,25.1081197 C38.36555,25.1081197 38.0848693,25.0905983 37.7691034,25.0730769 C37.4533376,25.0555556 37.1726568,25.0205128 36.9270612,24.9679487 L36.9270612,7.67435897 L36.9270612,7.67435897 Z" id="Shape"></path>
                        <path d="M64.6969129,10.3025641 L62.5040945,10.3025641 C62.4514669,10.1273504 62.4163818,9.91709402 62.3988393,9.67179487 C62.3812967,9.44401709 62.3637542,9.19871795 62.3637542,8.98846154 C62.3637542,8.76068376 62.3812967,8.53290598 62.3988393,8.30512821 C62.4163818,8.07735043 62.4514669,7.86709402 62.5040945,7.67435897 L67.9598266,7.67435897 L67.9598266,24.932906 C67.714231,24.9854701 67.4335502,25.0029915 67.1353269,25.0380342 C66.8371036,25.0555556 66.5564229,25.0730769 66.3108272,25.0730769 C66.0827741,25.0730769 65.8196359,25.0555556 65.5214126,25.0380342 C65.2231893,25.0205128 64.9425086,24.9854701 64.6969129,24.932906 L64.6969129,10.3025641 L64.6969129,10.3025641 Z M63.9601259,3.87222222 C63.9074983,3.60940171 63.8899557,3.31153846 63.8724132,2.99615385 C63.8548706,2.68076923 63.8548706,2.40042735 63.8548706,2.15512821 C63.8548706,1.90982906 63.8548706,1.62948718 63.8724132,1.31410256 C63.8899557,0.998717949 63.9074983,0.718376068 63.9601259,0.473076923 C64.2583492,0.420512821 64.5741151,0.402991453 64.9074235,0.367948718 C65.2407319,0.35042735 65.5389551,0.332905983 65.7845508,0.332905983 C66.0301465,0.332905983 66.3283698,0.35042735 66.6616781,0.367948718 C66.9949865,0.385470085 67.3107524,0.420512821 67.5738906,0.473076923 C67.6265182,0.718376068 67.6440608,0.998717949 67.6616033,1.31410256 C67.6791459,1.62948718 67.6791459,1.90982906 67.6791459,2.15512821 C67.6791459,2.40042735 67.6791459,2.68076923 67.6616033,2.99615385 C67.6440608,3.31153846 67.6265182,3.60940171 67.5738906,3.87222222 C67.3107524,3.92478632 67.0125291,3.94230769 66.6792207,3.97735043 C66.3459123,3.99487179 66.0652316,4.01239316 65.8196359,4.01239316 C65.5564977,4.01239316 65.2407319,3.99487179 64.9074235,3.97735043 C64.5565725,3.94230769 64.2408067,3.90726496 63.9601259,3.87222222 L63.9601259,3.87222222 Z" id="Shape"></path>
                        <path d="M71.3630807,7.67435897 C71.6086764,7.62179487 71.854272,7.6042735 72.0823251,7.56923077 C72.3103782,7.5517094 72.5559739,7.53418803 72.8015696,7.53418803 C73.0471652,7.53418803 73.2752183,7.5517094 73.4857289,7.56923077 C73.6962394,7.58675214 73.9242926,7.62179487 74.1698882,7.67435897 C74.2400584,8.00726496 74.3102286,8.46282051 74.3803988,9.04102564 C74.450569,9.61923077 74.4856541,10.0923077 74.4856541,10.4777778 C74.7137072,10.0923077 74.9943879,9.70683761 75.3452389,9.33888889 C75.6960898,8.9534188 76.0995684,8.62051282 76.538132,8.30512821 C76.9942383,8.00726496 77.5029721,7.76196581 78.0818762,7.56923077 C78.6607802,7.37649573 79.3098545,7.28888889 79.9940138,7.28888889 C81.9763216,7.28888889 83.432353,7.84957265 84.3796505,8.98846154 C85.326948,10.1273504 85.8005968,11.7918803 85.8005968,14.017094 L85.8005968,24.9504274 C85.5550011,25.0029915 85.2743204,25.0205128 84.9585545,25.0555556 C84.6427887,25.0730769 84.362108,25.0905983 84.1165123,25.0905983 C83.8709166,25.0905983 83.5902359,25.0730769 83.2920126,25.0555556 C82.9937893,25.0380342 82.7131085,25.0029915 82.4675129,24.9504274 L82.4675129,14.9282051 C82.4675129,13.3337607 82.2219172,12.1598291 81.7307259,11.4064103 C81.2395346,10.6529915 80.45012,10.2850427 79.3800246,10.2850427 C78.748493,10.2850427 78.1520464,10.3901709 77.5906849,10.6179487 C77.0293234,10.8457265 76.538132,11.1961538 76.0995684,11.6692308 C75.6785472,12.1423077 75.3276963,12.7555556 75.0645581,13.5089744 C74.8014199,14.2623932 74.6786221,15.1559829 74.6786221,16.2247863 L74.6786221,24.9679487 C74.4330264,25.0205128 74.1523457,25.0380342 73.8541224,25.0730769 C73.5558991,25.0905983 73.2752183,25.1081197 73.0296227,25.1081197 C72.784027,25.1081197 72.5033463,25.0905983 72.1875804,25.0730769 C71.8718146,25.0555556 71.5911338,25.0205128 71.3455382,24.9679487 L71.3455382,7.67435897 L71.3630807,7.67435897 Z" id="Shape"></path>
                        <path d="M88.6249468,7.67435897 C88.8705425,7.62179487 89.1512233,7.6042735 89.4669891,7.56923077 C89.7827549,7.5517094 90.0458931,7.53418803 90.2739463,7.53418803 C90.5195419,7.53418803 90.8002227,7.5517094 91.1159885,7.56923077 C91.4317543,7.58675214 91.7124351,7.62179487 91.9580308,7.67435897 L91.9580308,17.1358974 C91.9580308,18.2047009 92.063286,19.0982906 92.256254,19.8166667 C92.4667646,20.5175214 92.7649879,21.0782051 93.1684665,21.4811966 C93.5719451,21.884188 94.0631364,22.1645299 94.659583,22.3222222 C95.238487,22.4799145 95.9226463,22.55 96.6769759,22.55 C97.8172414,22.55 98.799624,22.4273504 99.6065812,22.1820513 L99.6065812,7.67435897 C99.8521768,7.62179487 100.132858,7.6042735 100.431081,7.56923077 C100.729304,7.5517094 101.009985,7.53418803 101.255581,7.53418803 C101.501176,7.53418803 101.781857,7.5517094 102.08008,7.56923077 C102.378304,7.58675214 102.658984,7.62179487 102.90458,7.67435897 L102.90458,24.407265 C102.115165,24.6350427 101.18541,24.8452991 100.097773,25.0380342 C99.0101346,25.2482906 97.8874116,25.3358974 96.712061,25.3358974 C95.6068805,25.3358974 94.5718702,25.2307692 93.5894876,25.0555556 C92.607105,24.8628205 91.7475202,24.4773504 91.0107332,23.8991453 C90.2739463,23.3209402 89.6774997,22.4974359 89.2564785,21.4461538 C88.8354574,20.3948718 88.6074043,18.9931624 88.6074043,17.2760684 L88.6074043,7.67435897 L88.6249468,7.67435897 Z" id="Shape"></path>
                        <path d="M106.781483,10.3376068 L104.150101,10.3376068 L104.00976,9.86452991 L109.798801,3.3991453 L110.061939,3.3991453 L110.061939,7.67435897 L114.447576,7.67435897 C114.535289,8.05982906 114.587916,8.48034188 114.587916,8.9534188 C114.587916,9.19871795 114.570374,9.44401709 114.552831,9.6542735 C114.535289,9.88205128 114.500203,10.1098291 114.447576,10.3200855 L110.061939,10.3200855 L110.061939,18.2047009 C110.061939,19.1508547 110.097024,19.9042735 110.184737,20.4649573 C110.254907,21.025641 110.395248,21.4636752 110.588216,21.7615385 C110.781184,22.0594017 111.044322,22.2696581 111.360088,22.3747863 C111.693396,22.4799145 112.096875,22.5324786 112.588066,22.5324786 C112.974002,22.5324786 113.324853,22.4974359 113.658161,22.4448718 C113.99147,22.3923077 114.289693,22.3222222 114.570374,22.2521368 C114.728257,22.7076923 114.815969,23.1632479 114.851054,23.6363248 C114.88614,24.1094017 114.903682,24.5299145 114.903682,24.8803419 C114.447576,24.9854701 113.973927,25.0730769 113.482736,25.125641 C112.991544,25.1782051 112.465268,25.2132479 111.903907,25.2132479 C110.289992,25.2132479 109.026929,24.8277778 108.114716,24.0393162 C107.202504,23.2508547 106.746398,21.9542735 106.746398,20.1320513 L106.746398,10.3376068 L106.781483,10.3376068 Z" id="Shape"></path>
                        <path d="M117.921,4.90598291 L117.921,1.17393162 L121.42951,1.17393162 L121.42951,4.90598291 L119.534914,9.11111111 L117.921,9.11111111 L119.113893,4.90598291 L117.921,4.90598291 L117.921,4.90598291 Z" id="Shape"></path>
                    </g>
                </g>
            </g>
        </g>
    </g>
</svg>