<svg xmlns="http://www.w3.org/2000/svg" viewBox="0 0 621.42 190.42" width="229" height="70"><title>full_logo_blue</title><path d="M113.7,106.74a12,12,0,0,0-9,3.52,14,14,0,0,0,0,18.39,13.2,13.2,0,0,0,17.87,0,13.77,13.77,0,0,0,0-18.39A12.07,12.07,0,0,0,113.7,106.74Z" transform="translate(-0.29 -0.79)" fill="#02c3e2"/><path d="M460.87,110.47a13.68,13.68,0,0,0-9.21-3h-3.93v24.08h3.93a13.08,13.08,0,0,0,9.18-3.28,11.5,11.5,0,0,0,3.59-8.94Q464.42,113.51,460.87,110.47Z" transform="translate(-0.29 -0.79)" fill="#02c3e2"/><polygon points="229.81 128.1 237.75 128.1 233.81 117.55 229.81 128.1" fill="#02c3e2"/><path d="M556.29,43.21V54.29c-0.67,0-1.33-.06-2-0.07h-489V54.3a68.5,68.5,0,0,0,3.5,136.91h0.5v-20h485a58.49,58.49,0,0,0,58-58h0v-70h-56ZM80,139.21A18.41,18.41,0,0,1,68,143a21.34,21.34,0,0,1-10.9-2.76,18.5,18.5,0,0,1-7.25-7.45l8-6.07q4.35,5.87,10.14,5.87,4.69,0,4.69-3.31a2.72,2.72,0,0,0-1-2.28,18.68,18.68,0,0,0-3.66-1.93L63.4,123q-11.52-5-11.52-13.73a12.06,12.06,0,0,1,4.45-9.76q4.45-3.69,11.49-3.69,11,0,15.59,9.18l-7.94,6.07a13.2,13.2,0,0,0-3.38-3.66A7.19,7.19,0,0,0,68,106.26q-4.07,0-4.07,2.9a2.64,2.64,0,0,0,.86,2,10.75,10.75,0,0,0,3.07,1.69l5.24,2.21a24.16,24.16,0,0,1,8.8,5.69,11.63,11.63,0,0,1,2.86,8A12.66,12.66,0,0,1,80,139.21Zm51.09-3a25.73,25.73,0,0,1-34.85,0,23.41,23.41,0,0,1,0-33.6,25.73,25.73,0,0,1,34.85,0A23.26,23.26,0,0,1,131.09,136.24Zm27.19-7.55a12.14,12.14,0,0,0,9,3.45q7.45,0,11.87-7.45l9,6.14a22.58,22.58,0,0,1-8.56,9A23.89,23.89,0,0,1,167.24,143a24.37,24.37,0,0,1-17.46-6.76,23.42,23.42,0,0,1,0-33.64,24.42,24.42,0,0,1,17.49-6.8,23.75,23.75,0,0,1,12.28,3.21,22.58,22.58,0,0,1,8.56,9l-9,6.14q-4.42-7.45-11.87-7.45a12,12,0,0,0-8.94,3.52,12.57,12.57,0,0,0-3.48,9.25A12.4,12.4,0,0,0,158.27,128.69Zm48.51,13.52H194.91V96.67h11.87v45.54Zm37.12,0-1.66-3.79H225.89l-1.66,3.79H211.47l20.7-46.37H236l20.7,46.37H243.9Zm48.16,0H261.36V96.67h11.87v34.84h18.84v10.7Zm52.68-3a18.41,18.41,0,0,1-12,3.83,21.34,21.34,0,0,1-10.9-2.76,18.5,18.5,0,0,1-7.25-7.45l8-6.07q4.35,5.87,10.14,5.87,4.69,0,4.69-3.31a2.72,2.72,0,0,0-1-2.28,18.68,18.68,0,0,0-3.66-1.93L328.15,123q-11.52-5-11.52-13.73a12.06,12.06,0,0,1,4.45-9.76q4.45-3.69,11.49-3.69,11,0,15.59,9.18l-7.93,6.07a13.2,13.2,0,0,0-3.38-3.66,7.18,7.18,0,0,0-4.14-1.17q-4.07,0-4.07,2.9a2.64,2.64,0,0,0,.86,2,10.73,10.73,0,0,0,3.07,1.69l5.24,2.21a24.15,24.15,0,0,1,8.8,5.69,11.63,11.63,0,0,1,2.86,8A12.66,12.66,0,0,1,344.74,139.21Zm43.92,3H356.23V96.67h31.6v10.69H368.1v6.28h14.08v9.94H368.1v7.93h20.56v10.7Zm39.81,0H396V96.67h31.6v10.69H407.91v6.28H422v9.94H407.91v7.93h20.56v10.7Zm41-6.38q-7.07,6.38-17.77,6.38H435.86V96.67h15.87q10.77,0,17.8,6.18t7,16.46A21.23,21.23,0,0,1,469.5,135.83Zm46.26,6.38H483.33V96.67h31.6v10.69H495.2v6.28h14.08v9.94H495.2v7.93h20.56v10.7Zm34.43,0-10.28-14.14H535v14.14H523.14V96.67H541q7.66,0,12.63,4.28a14.27,14.27,0,0,1,5,11.39,14.2,14.2,0,0,1-7.18,13l12,16.91H550.19Z" transform="translate(-0.29 -0.79)" fill="#02c3e2"/><path d="M541.08,107H535v10.69h6.07a5.37,5.37,0,0,0,4-1.48,5.27,5.27,0,0,0,1.48-3.9,5.16,5.16,0,0,0-1.48-3.86A5.44,5.44,0,0,0,541.08,107Z" transform="translate(-0.29 -0.79)" fill="#02c3e2"/><path d="M619.72,0.81c-4.85,1.11-16.61,11.54-51.58,13.88C519,18,522.45,84,523.85,85.82c1.71,2.27,9.9-6,27.48-10.44,11.47-2.89,28.17-1.17,42.84-7.64C622,55.47,624.64-.32,619.72.81Z" transform="translate(-0.29 -0.79)" fill="#05e6aa" fill-rule="evenodd"/></svg>