<svg xmlns="http://www.w3.org/2000/svg" viewBox="0 0 342.48 83.45"><defs><style>.cls-1{fill:#1eb5a2;}</style></defs><title>Fichier 6</title><g id="Calque_2" data-name="Calque 2"><g id="Color"><g id="Logo"><path class="cls-1" d="M43.08,81.38V72.45h-.25a18.47,18.47,0,0,1-3,4.15A19.55,19.55,0,0,1,35.39,80a27.38,27.38,0,0,1-5.57,2.33,22.4,22.4,0,0,1-6.4.9,23.28,23.28,0,0,1-10.93-2.33,21,21,0,0,1-7.25-6,23.64,23.64,0,0,1-4-8.41A38.09,38.09,0,0,1,0,56.8V17H21.35V51.88a33.1,33.1,0,0,0,.39,5.18,13.06,13.06,0,0,0,1.48,4.4,8.28,8.28,0,0,0,2.92,3,9.14,9.14,0,0,0,4.78,1.1,9.72,9.72,0,0,0,8.48-4.14,16.46,16.46,0,0,0,2.91-9.71V17H63.53V81.38Z"/><path class="cls-1" d="M122.4,81.38V46.19a27.89,27.89,0,0,0-.46-5.18,14.26,14.26,0,0,0-1.48-4.33,7.85,7.85,0,0,0-2.91-3,9.3,9.3,0,0,0-4.73-1.1,10.75,10.75,0,0,0-5,1.1,10.16,10.16,0,0,0-3.56,3,13.65,13.65,0,0,0-2.13,4.46,19,19,0,0,0-.71,5.24V81.38H80.09V17h20.57v8.93h.26a21.58,21.58,0,0,1,3-4.08,18.24,18.24,0,0,1,4.4-3.43,27.48,27.48,0,0,1,5.5-2.33,21.74,21.74,0,0,1,6.34-.9,23.74,23.74,0,0,1,11,2.33,21.08,21.08,0,0,1,7.31,6,23.82,23.82,0,0,1,4,8.48,38.31,38.31,0,0,1,1.23,9.57V81.38Z"/><path class="cls-1" d="M204.3,37.78A12.94,12.94,0,0,0,199.38,34,15.05,15.05,0,0,0,193,32.6,13.48,13.48,0,0,0,187,34a14.93,14.93,0,0,0-4.66,3.63,17,17,0,0,0-3,5.24,18.17,18.17,0,0,0-1.1,6.34,19.2,19.2,0,0,0,1,6.34,15.48,15.48,0,0,0,3,5.24A14.36,14.36,0,0,0,187,64.3a14.64,14.64,0,0,0,6.28,1.3,17.57,17.57,0,0,0,6.4-1.23,12.23,12.23,0,0,0,5.11-3.56l11.78,14.36a27.65,27.65,0,0,1-10.35,6.08,40.72,40.72,0,0,1-13.46,2.2,42.43,42.43,0,0,1-14.25-2.33A33.07,33.07,0,0,1,167,74.33a32.1,32.1,0,0,1-7.68-10.8,35.31,35.31,0,0,1-2.8-14.36,35,35,0,0,1,2.8-14.24A32.1,32.1,0,0,1,167,24.13a34,34,0,0,1,11.5-6.86,41.33,41.33,0,0,1,14.12-2.39,37.29,37.29,0,0,1,6.92.65,46.28,46.28,0,0,1,6.6,1.74A30.32,30.32,0,0,1,212,20a24.74,24.74,0,0,1,4.59,3.56Z"/><path class="cls-1" d="M267.31,81.38V72.45h-.26a18.47,18.47,0,0,1-3,4.15,19.33,19.33,0,0,1-4.4,3.36A27.15,27.15,0,0,1,254,82.29a22.4,22.4,0,0,1-6.4.9,23.3,23.3,0,0,1-10.93-2.33,21,21,0,0,1-7.25-6,23.81,23.81,0,0,1-4-8.41,38.09,38.09,0,0,1-1.23-9.64V17h21.35V51.88a33.1,33.1,0,0,0,.39,5.18,12.86,12.86,0,0,0,1.49,4.4,8.18,8.18,0,0,0,2.91,3,9.14,9.14,0,0,0,4.78,1.1,9.72,9.72,0,0,0,8.48-4.14,16.46,16.46,0,0,0,2.91-9.71V17h21.22V81.38Z"/><path class="cls-1" d="M327.34,32.73V57.41q0,4.55,1.75,6.82c1.16,1.52,3.25,2.27,6.27,2.27a21.5,21.5,0,0,0,3.3-.26,11.29,11.29,0,0,0,2.91-.77L341.83,81a35.06,35.06,0,0,1-5.56,1.36,39.32,39.32,0,0,1-6.73.59,31.67,31.67,0,0,1-10.87-1.63,16.79,16.79,0,0,1-7.05-4.67,18.33,18.33,0,0,1-3.82-7.26,35.58,35.58,0,0,1-1.16-9.4V32.73H296.29V17h10.22V0h20.83V17h15.14V32.73Z"/></g></g></g></svg>